<svg width="350" height="350" viewBox="0 0 350 350" fill="none" xmlns="http://www.w3.org/2000/svg">
<g clip-path="url(#clip0_78_19)">
<mask id="mask0_78_19" style="mask-type:luminance" maskUnits="userSpaceOnUse" x="-13" y="8" width="375" height="337">
<path d="M361.844 8.35724H-12.5562V344.154H361.844V8.35724Z" fill="white"/>
</mask>
<g mask="url(#mask0_78_19)">
<mask id="mask1_78_19" style="mask-type:luminance" maskUnits="userSpaceOnUse" x="-269" y="-68" width="917" height="993">
<path d="M647.366 -67.9603H-268.443V924.166H647.366V-67.9603Z" fill="white"/>
</mask>
<g mask="url(#mask1_78_19)">
<mask id="mask2_78_19" style="mask-type:luminance" maskUnits="userSpaceOnUse" x="-269" y="-68" width="917" height="993">
<path d="M647.366 -67.9603H-268.443V924.165H647.366V-67.9603Z" fill="white"/>
</mask>
<g mask="url(#mask2_78_19)">
<path d="M228.979 128.718C227.073 126.535 225.066 124.42 222.889 122.438C220.711 120.457 218.43 118.543 216.05 116.797C203.698 107.73 188.524 102.021 172.465 102.021C168.314 102.021 164.536 102.323 160.896 102.927C157.222 103.532 153.683 104.471 149.939 105.715L149.226 103.633C153.069 102.323 156.746 101.383 160.522 100.744C164.333 100.106 168.212 99.8042 172.465 99.8042C189.036 99.8042 204.651 105.68 217.343 115.016C219.826 116.829 222.174 118.777 224.386 120.826C226.598 122.873 228.707 125.023 230.68 127.306L230.714 127.34L229.795 128.079L229.013 128.75L228.979 128.718ZM219.077 234.162C221.255 232.248 223.398 230.167 225.507 227.95C227.583 225.701 229.59 223.35 231.53 220.83C241.295 208.07 248.202 192.084 246.603 176.267C246.194 172.305 245.65 168.578 244.935 164.883C244.186 161.222 243.268 157.63 242.043 153.969L244.153 153.264C245.378 157.025 246.364 160.685 247.113 164.446C247.826 168.174 248.372 171.969 248.779 176.031C250.446 192.486 243.369 209.008 233.265 222.172C231.327 224.757 229.251 227.176 227.106 229.459C224.998 231.742 222.785 233.858 220.54 235.84H220.506L219.077 234.162ZM115.609 226.975C115.609 227.009 115.642 227.043 115.642 227.043L116.357 226.304L115.609 226.975ZM115.541 226.909C115.575 226.943 115.575 226.977 115.609 226.977L116.357 226.304L116.391 226.271L115.541 226.909ZM117.208 225.465C117.208 225.465 117.241 225.499 117.241 225.532C119.181 227.648 121.188 229.662 123.298 231.543C125.441 233.457 127.686 235.237 130.034 236.883C142.044 245.311 156.709 250.281 172.463 250.281C176.001 250.281 179.813 250.013 183.554 249.542C184.064 249.475 184.677 249.408 185.358 249.308C188.456 248.837 191.448 248.234 194.136 247.461L194.749 249.576C191.958 250.382 188.862 251.02 185.664 251.49C185.154 251.557 184.541 251.658 183.828 251.759C179.948 252.229 176.068 252.498 172.463 252.498C156.233 252.498 141.161 247.36 128.742 238.663C126.327 236.984 124.048 235.171 121.836 233.223C119.624 231.241 117.548 229.159 115.61 227.01L115.543 226.909L116.393 226.271L117.208 225.465ZM123.672 117.536C123.638 117.569 123.605 117.603 123.57 117.637L124.318 118.376L123.672 117.536ZM123.741 117.468C123.741 117.502 123.707 117.536 123.672 117.536L124.318 118.376H124.352L123.741 117.468ZM125.135 119.181C125.102 119.214 125.068 119.248 125.033 119.282C122.652 121.196 120.405 123.21 118.33 125.326C116.255 127.476 114.315 129.759 112.546 132.109C103.358 144.265 98.3239 159.31 98.3239 176.134V176.167C98.3575 180.466 98.6981 184.697 99.4129 188.794C99.5489 189.432 99.6512 190.104 99.7872 190.776C100.502 194.201 101.42 197.526 102.543 200.75L100.467 201.489C99.277 198.165 98.3239 194.739 97.6091 191.213C97.5068 190.575 97.3708 189.87 97.2349 189.166C96.52 184.934 96.1122 180.603 96.1122 176.17V176.136C96.1122 158.809 101.318 143.328 110.777 130.768C112.615 128.351 114.622 126 116.765 123.817C118.908 121.567 121.222 119.485 123.672 117.537L123.741 117.468L124.352 118.376L125.135 119.181Z" fill="#D9D9D9" fill-opacity="0.2"/>
</g>
<mask id="mask3_78_19" style="mask-type:luminance" maskUnits="userSpaceOnUse" x="-269" y="-68" width="917" height="993">
<path d="M647.366 -67.9603H-268.443V924.165H647.366V-67.9603Z" fill="white"/>
</mask>
<g mask="url(#mask3_78_19)">
<path d="M239.934 123.243C231.904 113.035 221.628 104.707 209.855 98.9642C198.558 93.4571 185.868 90.3676 172.463 90.3676C167.122 90.3676 161.95 90.8374 156.981 91.7434C151.844 92.6844 148.883 93.2874 144.053 95.1357L138.881 87.647C144.12 85.6655 149.631 84.0878 155.382 83.0472C160.963 82.0403 166.679 81.5032 172.462 81.5032C187.229 81.5032 201.247 84.8955 213.734 91.007C226.731 97.3205 238.026 106.521 246.873 117.771M225.133 243.934C234.967 235.875 244.527 224.389 250.006 212.838C255.312 201.723 258.274 189.264 258.274 176.134C258.274 170.795 257.9 165.958 257.083 161.257C256.267 156.59 255.007 152.056 253.272 147.388L261.335 143.492C263.31 148.698 264.908 154.541 265.793 159.779C266.713 164.985 267.119 170.357 267.119 176.134C267.119 190.608 263.854 204.309 258.002 216.599C251.946 229.393 240.752 242.389 229.931 251.221L225.133 243.934ZM105.64 229.864C113.67 239.838 123.877 247.965 135.513 253.539C146.706 258.945 159.262 261.934 172.463 261.934C177.397 261.934 182.228 261.531 186.89 260.725C191.686 259.918 195.566 259.516 200.057 257.938L203.799 265.46C198.832 267.206 193.66 268.55 188.387 269.456C183.181 270.363 177.872 270.799 172.463 270.799C157.867 270.799 144.054 267.474 131.702 261.565C118.876 255.386 107.612 246.421 98.7667 235.405L105.64 229.864ZM119.589 108.771C108.973 116.763 101.692 125.93 95.7029 137.919C89.9198 149.438 86.6527 162.434 86.6527 176.135C86.6527 181.541 87.1629 186.747 88.0823 191.751C89.0354 196.922 90.465 201.96 92.3362 206.795L84.511 211.262C82.4689 205.989 80.4617 199.14 79.374 193.363C78.3537 187.721 77.8085 181.979 77.8085 176.136C77.8085 161.025 81.3812 146.685 87.7431 133.959C94.3783 120.761 102.986 110.518 114.69 101.721L119.589 108.771Z" fill="#D9D9D9" fill-opacity="0.2"/>
</g>
<mask id="mask4_78_19" style="mask-type:luminance" maskUnits="userSpaceOnUse" x="-269" y="-68" width="917" height="993">
<path d="M647.366 -67.9603H-268.443V924.165H647.366V-67.9603Z" fill="white"/>
</mask>
<g mask="url(#mask4_78_19)">
<path d="M255.483 111.557C252.761 108.133 249.869 104.841 246.739 101.786C243.643 98.7299 240.342 95.8411 236.871 93.1555C219.008 79.3871 196.553 71.092 172.463 71.092C165.147 71.092 158.344 71.7301 151.742 73.0736C145.175 74.3834 138.814 76.3972 132.519 79.1178L131.633 77.069C138.099 74.3161 144.598 72.2672 151.299 70.8901C158.037 69.5467 165.011 68.8749 172.463 68.8749C197.063 68.8749 219.961 77.3382 238.232 91.4082C241.77 94.1288 245.14 97.0836 248.303 100.207C251.501 103.363 254.46 106.687 257.217 110.18L255.823 111.288L255.483 111.557ZM236.192 260.221C236.158 260.255 236.123 260.255 236.158 260.221L236.259 260.087L236.396 259.952C239.731 257.265 242.963 254.31 246.025 251.154C249.086 248.031 251.979 244.672 254.701 241.113C268.616 222.911 277.531 199.908 277.531 176.132C277.531 168.879 276.885 162.095 275.592 155.547C274.299 148.999 272.36 142.686 269.673 136.406L271.714 135.534C274.436 141.948 276.444 148.429 277.77 155.111C279.098 161.827 279.745 168.745 279.745 176.132C279.745 200.412 270.66 223.885 256.438 242.455C253.682 246.048 250.722 249.507 247.592 252.698C244.531 255.888 241.264 258.876 237.861 261.596C237.827 261.663 237.759 261.697 237.69 261.73L237.079 260.823L236.192 260.221ZM236.43 259.986C236.361 260.053 236.227 260.188 236.192 260.221L237.076 260.826V260.792L236.43 259.986ZM236.464 259.92C236.464 259.92 236.43 259.952 236.43 259.986L237.076 260.793L236.464 259.92ZM90.0558 241.584L90.0895 241.617C92.7428 245.076 95.6357 248.333 98.6982 251.389C101.759 254.411 105.026 257.266 108.463 259.918C126.053 273.451 148.203 281.209 172.463 281.209C179.268 281.209 185.937 280.571 192.368 279.329C193.422 279.093 194.476 278.891 195.497 278.657C200.805 277.448 206.011 275.835 211.012 273.855L211.828 275.938C206.724 277.953 201.45 279.598 195.973 280.807C194.884 281.075 193.83 281.277 192.774 281.478C186.208 282.755 179.403 283.426 172.462 283.426C147.693 283.426 125.099 275.501 107.101 261.666C103.597 258.979 100.296 256.091 97.1326 252.935C94.0014 249.845 91.0763 246.52 88.3543 242.995L88.3206 242.961L89.0355 242.424L90.0558 241.584ZM107.476 93.558L107.443 93.5917C103.937 96.2786 100.638 99.1661 97.5418 102.256C94.4457 105.311 91.5528 108.569 88.8658 112.027C75.1876 129.658 67.3961 151.72 67.3961 176.134V176.167C67.3961 183.387 68.2468 190.608 69.7774 197.625C70.0157 198.767 70.2876 199.908 70.5608 201.017C72.0241 206.827 73.8953 212.402 76.1407 217.675L74.0986 218.515C71.8195 213.141 69.8797 207.433 68.4164 201.556C68.1445 200.379 67.8726 199.238 67.6006 198.096C66.0687 190.944 65.1843 183.556 65.1843 176.167V176.134C65.1843 151.216 73.1118 128.651 87.1307 110.65C89.8526 107.157 92.7791 103.833 95.9776 100.676C99.1424 97.5534 102.51 94.5986 106.082 91.8444C106.082 91.8444 106.082 91.8444 106.115 91.8444L106.659 92.5834L107.476 93.558Z" fill="#D9D9D9" fill-opacity="0.2"/>
</g>
<mask id="mask5_78_19" style="mask-type:luminance" maskUnits="userSpaceOnUse" x="-269" y="-68" width="917" height="993">
<path d="M647.366 -67.9603H-268.443V924.165H647.366V-67.9603Z" fill="white"/>
</mask>
<g mask="url(#mask5_78_19)">
<path d="M232.483 55.3421L232.243 55.8469L232.483 55.3421ZM232.483 55.3421L232.211 55.8469C229.761 54.638 227.209 53.4965 224.589 52.4223C221.969 51.348 219.315 50.3061 216.628 49.3665C202.711 44.5311 187.501 41.5749 172.463 41.5749C152.185 41.5749 132.927 46.0751 115.676 54.1669C112.885 55.4767 110.096 56.8874 107.408 58.3992C93.4925 66.1221 81.1066 76.2303 70.7641 88.1519L69.0962 86.7074C79.6097 74.5853 92.1989 64.3088 106.319 56.4499C109.074 54.9382 111.865 53.4951 114.723 52.1516C132.313 43.9576 151.878 39.3578 172.463 39.3578C187.774 39.3578 203.187 42.3463 217.341 47.2826C220.131 48.2573 222.819 49.2978 225.44 50.372C228.094 51.4799 230.68 52.6215 233.163 53.8303L232.483 55.3421ZM232.211 55.8469C232.211 55.8469 232.347 55.8805 232.278 55.8805L232.653 54.9396L232.483 55.3421L232.243 55.8469L232.278 55.8805L232.651 54.9396L233.195 53.8653L232.211 55.8469ZM293.432 235.058C302.157 217.251 307.067 197.26 307.067 176.169V176.135C307.067 155.013 302.712 135.469 294.511 118.14C293.185 115.32 291.755 112.532 290.223 109.846C282.331 95.9434 271.816 83.653 258.99 73.3428L260.385 71.5969C273.417 82.1076 284.098 94.6336 292.13 108.771C293.694 111.524 295.157 114.312 296.518 117.199C304.853 134.83 309.278 154.676 309.278 176.134V176.167C309.278 197.636 304.276 217.991 295.383 236.116M278.479 262.464C275.537 266.07 272.416 269.525 269.129 272.813C244.36 297.596 210.131 312.943 172.466 312.943C161.067 312.943 150.248 311.634 139.87 309.115C129.526 306.563 119.659 302.768 110.201 297.798L111.22 295.818C120.542 300.722 130.24 304.448 140.413 306.966C150.587 309.451 161.236 310.728 172.465 310.728C209.516 310.728 243.167 295.616 267.564 271.237C270.871 267.927 274.009 264.446 276.961 260.809M52.7996 114.613V114.647C51.4737 117.233 50.2137 119.852 49.0573 122.538C47.901 125.191 46.812 127.912 45.8252 130.698C40.7206 144.903 37.8627 160.284 37.8627 176.134V176.167C37.8627 196.719 42.5244 216.23 50.8262 233.691C52.1871 236.513 53.6168 239.299 55.181 242.02C63.1085 256.058 73.4523 268.55 85.701 278.892L84.2714 280.605C71.8181 270.06 61.3046 257.4 53.2412 243.128C51.6756 240.341 50.2123 237.52 48.8177 234.632C40.38 216.867 35.6497 197.054 35.6497 176.167V176.134C35.6497 160.015 38.5412 144.4 43.7481 129.959C44.7348 127.139 45.8575 124.385 47.0489 121.631C48.2052 118.91 49.4652 116.258 50.8262 113.639L51.3701 113.906L52.7996 114.613Z" fill="#D9D9D9" fill-opacity="0.2"/>
</g>
<mask id="mask6_78_19" style="mask-type:luminance" maskUnits="userSpaceOnUse" x="-269" y="-68" width="917" height="993">
<path d="M647.366 -67.9603H-268.443V924.165H647.366V-67.9603Z" fill="white"/>
</mask>
<g mask="url(#mask6_78_19)">
<path d="M242.758 47.4509C209.312 31.3994 180.8 26.7996 148.951 32.0375C117.174 37.243 86.3471 53.5302 63.5837 78.5807L57.7319 71.9321C81.8887 45.3697 113.838 28.8471 147.558 23.3063C181.275 17.7655 218.533 24.6161 249.699 42.0784M301.937 244.08C312.658 223.761 318.734 200.636 318.734 176.134C318.734 154.508 314.005 133.99 305.532 115.521C296.754 96.3109 284.675 80.0925 268.887 66.425L276.237 62.1604C292.364 76.9357 304.24 91.4769 313.595 111.86C322.578 131.471 327.581 153.265 327.581 176.135C327.581 203.605 320.387 229.44 307.788 251.846M289.698 277.363C286.417 281.366 285.715 282.089 282.056 285.744C253.985 313.852 215.198 331.281 172.463 331.281C158.683 331.281 145.311 329.467 132.554 326.042C119.351 322.516 105.503 316.403 93.969 309.754L100.672 304.146C111.593 310.426 122.447 314.186 134.833 317.511C146.843 320.701 159.431 322.414 172.463 322.414C212.748 322.414 249.29 305.993 275.795 279.497C278.928 276.366 281.919 273.094 284.76 269.691M45.4846 104.203C39.089 115.285 35.1758 124.789 31.5344 137.953C28.1327 150.277 26.1929 163.24 26.1929 176.135C26.1929 197.123 30.9569 217.306 39.2923 235.54C48.0706 254.815 60.8631 272.008 76.2429 285.81L69.0302 291.016C52.7996 276.441 40.551 259.651 31.2289 239.2C22.3819 219.79 17.3459 198.398 17.3459 176.134C17.3459 162.5 19.3881 148.731 23.0281 135.567C26.839 121.698 32.4525 108.502 39.2237 96.7807L45.4846 104.203Z" fill="#D9D9D9" fill-opacity="0.2"/>
</g>
<mask id="mask7_78_19" style="mask-type:luminance" maskUnits="userSpaceOnUse" x="-269" y="-68" width="917" height="993">
<path d="M647.366 -67.9603H-268.443V924.165H647.366V-67.9603Z" fill="white"/>
</mask>
<g mask="url(#mask7_78_19)">
<path d="M259.532 36.302H259.499C255.96 34.0863 252.353 32.0038 248.611 30.0559C244.902 28.108 241.125 26.2947 237.247 24.6161C217.343 16.0869 195.431 11.3174 172.465 11.3174C149.055 11.3174 126.974 16.0532 106.968 24.7171C103.702 26.1278 100.503 27.6382 97.3735 29.2509C81.2465 37.5459 66.6488 48.5265 54.061 61.7242L52.4617 60.1801C65.2206 46.8155 79.9879 35.699 96.3531 27.2707C99.5852 25.6243 102.817 24.0803 106.084 22.6709C126.363 13.9061 148.751 9.10303 172.467 9.10303C195.74 9.10303 217.958 13.9047 238.134 22.6022C242.046 24.2822 245.892 26.1292 249.634 28.0757C253.412 30.0573 257.085 32.1721 260.693 34.4228L260.216 35.1618M313.761 260.848C328.683 236.072 337.28 207.086 337.28 176.167V176.134C337.28 152.459 332.549 130.429 323.806 110.583C322.376 107.359 320.846 104.202 319.213 101.079C310.807 85.0624 299.648 70.5886 286.173 57.9967L287.705 56.3503C301.349 69.1442 312.644 83.7863 321.185 100.04C322.818 103.196 324.383 106.42 325.847 109.712C334.692 129.827 339.49 152.159 339.49 176.135V176.169C339.49 207.796 330.617 237.436 315.231 262.707M294.615 289.905C293.267 291.351 291.893 292.774 290.495 294.173C260.214 324.43 218.465 343.201 172.465 343.201C155.69 343.201 140.04 340.985 125.306 336.652C110.54 332.286 96.7259 325.805 83.6265 317.243L84.8165 315.361C97.78 323.858 111.39 330.237 125.919 334.536C140.446 338.8 155.893 340.984 172.465 340.984C217.853 340.984 259.056 322.446 288.931 292.594C290.642 290.882 292.316 289.133 293.951 287.347M34.5283 85.9024C32.1469 89.529 29.9352 93.2565 27.8594 97.0513C25.7836 100.88 23.8452 104.809 22.0763 108.838C12.8552 129.457 7.64959 152.393 7.64959 176.135V176.169C7.64959 199.911 12.4809 222.276 21.3615 242.424C22.7911 245.715 24.3567 248.939 25.9896 252.096C34.5296 268.383 45.7915 283.057 59.3338 295.651L57.8033 297.262C44.0913 284.502 32.6585 269.626 24.0512 253.136C22.3496 249.912 20.7854 246.656 19.3221 243.331C10.3392 222.88 5.43921 200.212 5.43921 176.169V176.135C5.43921 152.091 10.7121 128.819 20.0356 107.931C21.8731 103.868 23.8129 99.8715 25.9223 96.0107C28.0317 92.1149 30.2771 88.3538 32.6584 84.6936H32.6921L33.9844 85.5659L34.5283 85.9024Z" fill="#D9D9D9" fill-opacity="0.2"/>
</g>
<mask id="mask8_78_19" style="mask-type:luminance" maskUnits="userSpaceOnUse" x="-269" y="-68" width="917" height="993">
<path d="M647.366 -67.9603H-268.443V924.165H647.366V-67.9603Z" fill="white"/>
</mask>
<g mask="url(#mask8_78_19)">
<path d="M83.251 37.243H83.2174C80.4281 35.6317 77.5353 34.0863 74.6087 32.6755C71.6485 31.2311 68.6197 29.889 65.4899 28.6115C49.4302 22.0974 31.7714 17.8665 14.3508 16.1865L14.0789 13.8361C31.7377 15.5821 50.0764 19.9813 66.307 26.564C69.4718 27.8401 72.5666 29.2173 75.5618 30.694C78.6243 32.1721 81.5508 33.7161 84.34 35.3274M161.745 136.877C161.745 136.877 161.745 136.877 161.712 136.844C160.555 132.613 159.159 128.415 157.56 124.218C155.996 120.021 154.192 115.889 152.219 111.827C142.113 90.9048 127.245 71.6642 110.369 56.8201L111.833 55.1751C128.913 70.1861 143.952 89.6636 154.227 110.886C156.234 115.016 158.038 119.214 159.639 123.445C161.271 127.643 162.938 132.747 164.163 137.079L163.923 137.113L163.856 136.273V136.306C163.888 136.34 163.856 136.273 163.856 136.273L163.992 137.246L163.141 137.381L163.856 136.306L163.005 137.448L161.745 136.877ZM151.641 248.098C151.641 248.064 151.641 248.064 151.641 248.098V248.098ZM151.641 248.098C151.606 248.098 151.606 248.133 151.641 248.098V248.098ZM149.633 247.091H149.666V247.057C151.333 243.732 152.898 240.308 154.328 236.781C155.758 233.255 157.084 229.629 158.309 225.967C164.466 206.994 167.426 186.274 166.27 167.066L168.481 166.931C169.638 186.409 166.679 207.431 160.418 226.639C159.194 230.366 157.833 234.06 156.369 237.621C154.907 241.214 153.341 244.705 151.64 248.064V248.098L149.633 247.091ZM149.633 247.091C149.633 247.125 149.633 247.158 149.633 247.091V247.091ZM149.633 247.091C149.668 247.091 149.668 247.091 149.633 247.091V247.091ZM10.5412 336.517L10.9155 336.45C17.6866 335.945 24.3891 335.073 30.9556 333.83C37.5222 332.588 44.0214 331.009 50.3833 329.062C82.9791 319.055 111.764 300.049 131.667 274.426L133.402 275.769C113.226 301.761 84.0331 321.07 51.0295 331.178C44.6325 333.126 38.066 334.738 31.3635 336.014C24.661 337.256 17.2774 338.197 10.4389 338.701H10.167L10.5412 336.517Z" fill="#D9D9D9" fill-opacity="0.2"/>
</g>
<mask id="mask9_78_19" style="mask-type:luminance" maskUnits="userSpaceOnUse" x="-269" y="-68" width="917" height="993">
<path d="M647.366 -67.9603H-268.443V924.165H647.366V-67.9603Z" fill="white"/>
</mask>
<g mask="url(#mask9_78_19)">
<path d="M67.0553 47.988C59.9786 44.2605 54.7731 42.3799 46.9815 38.9876C39.3932 35.8982 32.9627 33.1776 25.0702 31.398L23.4023 23.842C41.5377 27.4686 57.8356 33.144 74.1671 41.7405M143.202 134.762C138.882 121.363 132.383 109.241 124.455 97.5884C116.392 85.7678 105.707 74.4507 94.6502 65.317L101.965 60.0119C113.635 69.684 123.23 80.0924 131.737 92.5861C140.176 104.944 147.864 121.265 152.423 135.503L143.202 134.762ZM133.335 239.4C138.54 229.662 142.623 219.32 145.38 208.54C148.068 198.164 149.461 187.384 149.461 176.437C149.461 174.925 149.429 173.415 149.394 171.836C149.326 170.426 149.258 168.007 149.122 166.328L158.003 165.724C158.104 167.236 158.206 169.754 158.241 171.534C158.31 173.112 158.343 174.724 158.343 176.437C158.343 188.123 156.811 199.64 153.989 210.723C151.062 222.14 146.707 233.156 141.127 243.565L133.335 239.4ZM23.0617 316.604C41.0261 314.253 58.1748 308.376 73.7578 299.712C89.8175 290.779 103.801 280.302 115.607 266.299L122.752 270.597C110.266 285.374 95.0567 297.966 78.044 307.436C61.5429 316.637 40.1754 322.885 21.0869 325.402L23.0617 316.604Z" fill="#D9D9D9" fill-opacity="0.2"/>
</g>
<mask id="mask10_78_19" style="mask-type:luminance" maskUnits="userSpaceOnUse" x="-269" y="-68" width="917" height="993">
<path d="M647.366 -67.9603H-268.443V924.165H647.366V-67.9603Z" fill="white"/>
</mask>
<g mask="url(#mask10_78_19)">
<path d="M222.616 81.8047C235.239 67.0967 250.924 53.9326 268.106 44.1272C284.914 34.4888 306.859 27.404 326.152 24.0453L324.213 32.9784C305.976 36.1351 288.418 42.6828 272.496 51.7842C256.163 61.1534 241.533 73.2096 229.624 87.145M186.922 186.779C186.821 185.235 186.72 183.488 186.652 181.609C186.618 179.929 186.583 178.216 186.583 176.437C186.583 164.818 188.216 153.198 191.176 141.915C194.237 130.161 198.797 118.844 204.445 108.367L212.237 112.564C206.894 122.437 202.608 133.116 199.715 144.164C196.959 154.675 195.427 165.556 195.427 176.435C195.427 178.013 195.461 179.626 195.53 181.304C195.598 182.749 195.666 185.771 195.802 187.55L186.922 186.779ZM242.52 292.493C230.441 282.553 220.03 271.437 211.421 258.341C202.982 245.513 194.919 229.058 190.767 214.081L200.772 215.155C204.65 229.157 210.842 241.315 218.838 253.437C227.004 265.895 238.164 278.186 249.494 287.488L242.52 292.493ZM327.921 326.544C319.041 325.402 306.691 323.421 296.381 320.398C287.467 317.779 277.974 313.851 271.338 310.157L277.702 303.608C283.724 306.933 290.528 309.452 298.829 311.903C308.73 314.792 317.611 316.201 326.084 317.31L327.921 326.544Z" fill="#D9D9D9" fill-opacity="0.2"/>
</g>
<mask id="mask11_78_19" style="mask-type:luminance" maskUnits="userSpaceOnUse" x="-269" y="-68" width="917" height="993">
<path d="M647.366 -67.9603H-268.443V924.165H647.366V-67.9603Z" fill="white"/>
</mask>
<g mask="url(#mask11_78_19)">
<path d="M211.115 76.4323L211.285 76.2303C215.505 70.9251 220.063 65.8878 224.93 61.152C229.796 56.4163 234.933 51.9511 240.342 47.8197C268.208 26.5963 303.322 13.8361 341.259 13.5668L341.056 15.7167C303.595 15.9859 269.162 28.6451 241.704 49.5671C236.361 53.6634 231.258 58.064 226.46 62.7311C221.664 67.3982 217.173 72.3695 212.987 77.6074L212.851 77.808M175.9 187.148V187.081C176.001 184.629 176.001 181.942 175.967 179.356C175.967 178.383 175.967 177.375 175.967 176.435V176.402C175.967 163.506 177.501 150.914 180.426 138.824C180.937 136.842 181.448 134.894 181.991 132.98C184.816 123.006 188.592 113.435 193.185 104.302L195.158 105.309C190.599 114.275 186.89 123.744 184.099 133.585C183.556 135.532 183.045 137.447 182.604 139.361C179.712 151.249 178.18 163.674 178.18 176.402V176.435C178.18 177.375 178.18 178.35 178.18 179.356C178.214 181.976 178.249 184.697 178.113 187.182V187.249L175.9 187.148ZM232.517 298.436V298.402C228.979 295.346 225.508 292.156 222.208 288.799C218.873 285.44 215.675 281.982 212.614 278.355C196.893 259.819 184.918 237.924 179.1 214.015L181.243 213.51C186.992 237.05 198.799 258.642 214.315 276.945C217.343 280.505 220.473 283.93 223.773 287.255C227.04 290.545 230.442 293.703 233.948 296.725V296.759L233.607 297.127L232.517 298.436ZM344.422 339.271L342.993 339.305C327.92 339.305 313.323 337.324 299.407 333.663C297.162 333.059 294.916 332.421 292.671 331.715C281.238 328.19 270.317 323.454 260.075 317.747L261.164 315.799C271.27 321.474 282.021 326.107 293.317 329.599C295.495 330.305 297.74 330.909 299.952 331.514C313.665 335.14 328.091 337.088 342.994 337.088L344.422 339.271Z" fill="#D9D9D9" fill-opacity="0.2"/>
</g>
<mask id="mask12_78_19" style="mask-type:luminance" maskUnits="userSpaceOnUse" x="-269" y="-68" width="917" height="993">
<path d="M647.366 -67.9603H-268.443V924.165H647.366V-67.9603Z" fill="white"/>
</mask>
<g mask="url(#mask12_78_19)">
<path d="M16.4952 14.3732V14.4068C16.7671 22.399 17.6179 30.0882 18.9452 37.5109C20.2725 44.9336 22.0763 52.0857 24.2531 58.869C35.4813 93.9269 56.406 120.624 74.8469 136.072L73.7929 137.919C55.1136 122.238 33.5079 95.0697 22.1437 59.5407C19.9319 52.6228 18.0944 45.4034 16.7671 37.9147C15.4061 30.3924 14.5554 22.5013 14.2834 14.4405" fill="#D9D9D9" fill-opacity="0.2"/>
</g>
<mask id="mask13_78_19" style="mask-type:luminance" maskUnits="userSpaceOnUse" x="-269" y="-68" width="917" height="993">
<path d="M647.366 -67.9603H-268.443V924.165H647.366V-67.9603Z" fill="white"/>
</mask>
<g mask="url(#mask13_78_19)">
<path d="M31.2275 25.9259C34.9361 44.9336 41.1971 62.194 50.1113 78.0772C58.6863 93.3238 69.8796 106.722 83.5229 118.273L78.8275 125.627C64.3671 113.371 51.4373 98.5603 42.3871 82.4092C32.9963 65.6859 27.2455 43.7907 23.3336 23.877" fill="#D9D9D9" fill-opacity="0.2"/>
</g>
<mask id="mask14_78_19" style="mask-type:luminance" maskUnits="userSpaceOnUse" x="-269" y="-68" width="917" height="993">
<path d="M647.366 -67.9603H-268.443V924.165H647.366V-67.9603Z" fill="white"/>
</mask>
<g mask="url(#mask14_78_19)">
<path d="M46.7097 50.6077H46.7434L49.363 51.5136C50.8263 54.7713 52.1872 57.6588 53.7864 60.7482C55.3857 63.8376 57.0522 66.8934 58.7874 69.8482C67.7689 84.9602 78.522 98.0232 90.1918 108.568L88.7285 110.214C76.8878 99.535 65.9664 86.3036 56.8813 70.9574C55.1461 68.0026 53.4445 64.9132 51.8117 61.7901C49.9418 58.1636 48.1716 54.4361 46.7097 50.6077Z" fill="#D9D9D9" fill-opacity="0.2"/>
</g>
<mask id="mask15_78_19" style="mask-type:luminance" maskUnits="userSpaceOnUse" x="-269" y="-68" width="917" height="993">
<path d="M647.366 -67.9603H-268.443V924.165H647.366V-67.9603Z" fill="white"/>
</mask>
<g mask="url(#mask15_78_19)">
<path d="M116.426 125.863C118.433 126.838 120.747 127.777 123.333 128.685C125.885 129.591 128.674 130.464 131.668 131.269C147.013 135.434 166.781 138.086 181.379 137.214L181.516 139.43C166.68 140.337 146.64 137.616 131.091 133.419C128.097 132.579 125.205 131.707 122.586 130.766C119.966 129.86 117.55 128.885 115.474 127.877L115.44 127.845" fill="#D9D9D9" fill-opacity="0.2"/>
</g>
<mask id="mask16_78_19" style="mask-type:luminance" maskUnits="userSpaceOnUse" x="-269" y="-68" width="917" height="993">
<path d="M647.366 -67.9603H-268.443V924.165H647.366V-67.9603Z" fill="white"/>
</mask>
<g mask="url(#mask16_78_19)">
<path d="M109.416 134.997C120.475 140.034 131.532 143.526 142.898 145.575C154.261 147.622 167.054 148.563 179.541 147.858L178.962 156.421C165.967 157.16 153.512 156.488 141.366 154.272C129.184 152.056 117.446 148.361 105.776 143.09" fill="#D9D9D9" fill-opacity="0.2"/>
</g>
<mask id="mask17_78_19" style="mask-type:luminance" maskUnits="userSpaceOnUse" x="-269" y="-68" width="917" height="993">
<path d="M647.366 -67.9603H-268.443V924.165H647.366V-67.9603Z" fill="white"/>
</mask>
<g mask="url(#mask17_78_19)">
<path d="M100.978 151.151C113.398 157.665 125.714 160.821 138.099 162.971C150.451 165.121 163.651 166.027 177.295 165.456L177.363 167.672C163.618 168.243 150.28 167.335 137.726 165.153C125.135 162.97 112.581 159.746 99.9231 153.097" fill="#D9D9D9" fill-opacity="0.2"/>
</g>
<mask id="mask18_78_19" style="mask-type:luminance" maskUnits="userSpaceOnUse" x="-269" y="-68" width="917" height="993">
<path d="M647.366 -67.9603H-268.443V924.165H647.366V-67.9603Z" fill="white"/>
</mask>
<g mask="url(#mask18_78_19)">
<path d="M221.152 119.08C216.321 129.39 212.307 140.438 209.686 152.023C207.065 163.608 205.806 175.765 206.487 188.357L204.274 188.491C203.561 175.698 204.853 163.339 207.541 151.552C210.196 139.765 214.279 128.582 219.144 118.139" fill="#D9D9D9" fill-opacity="0.2"/>
</g>
<mask id="mask19_78_19" style="mask-type:luminance" maskUnits="userSpaceOnUse" x="-269" y="-68" width="917" height="993">
<path d="M647.366 -67.9603H-268.443V924.165H647.366V-67.9603Z" fill="white"/>
</mask>
<g mask="url(#mask19_78_19)">
<path d="M167.291 186.242C181.378 185.234 194.41 185.84 206.929 188.257C219.484 190.709 231.495 194.973 243.608 201.287L242.587 203.268C230.678 197.022 218.837 192.825 206.521 190.441C194.204 188.057 181.376 187.452 167.46 188.459" fill="#D9D9D9" fill-opacity="0.2"/>
</g>
<mask id="mask20_78_19" style="mask-type:luminance" maskUnits="userSpaceOnUse" x="-269" y="-68" width="917" height="993">
<path d="M647.366 -67.9603H-268.443V924.165H647.366V-67.9603Z" fill="white"/>
</mask>
<g mask="url(#mask20_78_19)">
<path d="M166.202 196.047C180.528 195.039 190.293 195.207 202.711 197.391C215.131 199.573 227.005 203.637 239.457 210.151L235.376 218.009C223.738 211.931 212.681 208.136 201.181 206.121C189.612 204.106 178.59 203.535 164.911 204.508" fill="#D9D9D9" fill-opacity="0.2"/>
</g>
<mask id="mask21_78_19" style="mask-type:luminance" maskUnits="userSpaceOnUse" x="-269" y="-68" width="917" height="993">
<path d="M647.366 -67.9603H-268.443V924.165H647.366V-67.9603Z" fill="white"/>
</mask>
<g mask="url(#mask21_78_19)">
<path d="M162.868 212.771C176.92 211.964 187.637 212.032 197.947 213.745C208.258 215.458 218.091 218.816 230.407 224.559L229.454 226.574C217.341 220.899 207.679 217.607 197.608 215.929C187.501 214.249 176.922 214.183 162.972 214.988" fill="#D9D9D9" fill-opacity="0.2"/>
</g>
<mask id="mask22_78_19" style="mask-type:luminance" maskUnits="userSpaceOnUse" x="-269" y="-68" width="917" height="993">
<path d="M647.366 -67.9603H-268.443V924.165H647.366V-67.9603Z" fill="white"/>
</mask>
<g mask="url(#mask22_78_19)">
<path d="M35.2768 268.986C33.4729 271.707 31.8401 274.527 30.2758 277.416C28.7439 280.27 27.3156 283.292 25.9883 286.381C19.1162 302.198 14.9984 319.996 12.6857 337.559L10.5076 337.29C12.8216 319.491 16.9718 301.527 23.9476 285.507C25.2735 282.384 26.7368 279.362 28.336 276.374C29.9352 273.385 31.6018 270.53 33.4057 267.777H33.4393V267.744" fill="#D9D9D9" fill-opacity="0.2"/>
</g>
<mask id="mask23_78_19" style="mask-type:luminance" maskUnits="userSpaceOnUse" x="-269" y="-68" width="917" height="993">
<path d="M647.366 -67.9603H-268.443V924.165H647.366V-67.9603Z" fill="white"/>
</mask>
<g mask="url(#mask23_78_19)">
<path d="M45.3487 282.184C41.4354 288.262 38.8495 294.44 36.1626 301.56C33.1001 309.62 30.9906 316.437 30.1062 322.683L20.9537 325.37C21.9405 318.586 24.5951 307.136 27.8608 298.472C30.7524 290.782 35.0399 282.219 39.3274 275.57" fill="#D9D9D9" fill-opacity="0.2"/>
</g>
<mask id="mask24_78_19" style="mask-type:luminance" maskUnits="userSpaceOnUse" x="-269" y="-68" width="917" height="993">
<path d="M647.366 -67.9603H-268.443V924.165H647.366V-67.9603Z" fill="white"/>
</mask>
<g mask="url(#mask24_78_19)">
<path d="M52.7309 290.914C51.6419 293.063 50.8248 294.843 50.0427 296.656C49.2605 298.537 48.6131 300.049 47.73 302.298L45.5856 301.828C46.505 299.444 47.2534 297.564 48.0355 295.783C48.819 293.936 49.6348 292.122 50.7238 289.94" fill="#D9D9D9" fill-opacity="0.2"/>
</g>
<mask id="mask25_78_19" style="mask-type:luminance" maskUnits="userSpaceOnUse" x="-269" y="-68" width="917" height="993">
<path d="M647.366 -67.9603H-268.443V924.165H647.366V-67.9603Z" fill="white"/>
</mask>
<g mask="url(#mask25_78_19)">
<path d="M46.0285 300.788L46.0972 300.72L46.1309 300.687C48.2066 300.015 50.316 299.175 52.8333 298C55.3856 296.825 58.1076 295.414 60.9655 293.802C75.6978 285.507 93.5262 272.042 105.946 259.012L107.579 260.524C94.9895 273.722 76.9564 287.356 62.0545 295.75C59.1629 297.363 56.3724 298.807 53.7864 300.015C50.8599 301.358 47.866 302.365 44.8708 303.473" fill="#D9D9D9" fill-opacity="0.2"/>
</g>
<mask id="mask26_78_19" style="mask-type:luminance" maskUnits="userSpaceOnUse" x="-269" y="-68" width="917" height="993">
<path d="M647.366 -67.9603H-268.443V924.165H647.366V-67.9603Z" fill="white"/>
</mask>
<g mask="url(#mask26_78_19)">
<path d="M52.8333 239.703C65.1169 224.423 78.8288 213.141 93.3229 204.88C107.851 196.653 123.163 191.448 138.575 188.392L139.018 190.574C123.809 193.596 108.701 198.701 94.4456 206.827C80.1548 214.92 66.6475 226.036 54.5684 241.08" fill="#D9D9D9" fill-opacity="0.2"/>
</g>
<mask id="mask27_78_19" style="mask-type:luminance" maskUnits="userSpaceOnUse" x="-269" y="-68" width="917" height="993">
<path d="M647.366 -67.9603H-268.443V924.165H647.366V-67.9603Z" fill="white"/>
</mask>
<g mask="url(#mask27_78_19)">
<path d="M58.72 249.677C71.2069 234.095 81.789 223.584 94.1736 215.894C106.627 208.17 121.869 202.461 137.692 199.305L136.296 208.54C121.496 211.461 110.268 216.331 98.8353 223.416C87.3351 230.568 75.3921 241.146 63.5527 255.922" fill="#D9D9D9" fill-opacity="0.2"/>
</g>
<mask id="mask28_78_19" style="mask-type:luminance" maskUnits="userSpaceOnUse" x="-269" y="-68" width="917" height="993">
<path d="M647.366 -67.9603H-268.443V924.165H647.366V-67.9603Z" fill="white"/>
</mask>
<g mask="url(#mask28_78_19)">
<path d="M68.2467 262.371C77.8407 250.45 87.7767 241.449 98.1542 234.566C108.532 227.648 119.384 222.879 130.784 219.353L131.43 221.47C120.235 224.928 109.584 229.63 99.3779 236.413C89.17 243.163 79.4063 251.995 69.9805 263.748" fill="#D9D9D9" fill-opacity="0.2"/>
</g>
<mask id="mask29_78_19" style="mask-type:luminance" maskUnits="userSpaceOnUse" x="-269" y="-68" width="917" height="993">
<path d="M647.366 -67.9603H-268.443V924.165H647.366V-67.9603Z" fill="white"/>
</mask>
<g mask="url(#mask29_78_19)">
<path d="M139.902 164.818C140.549 176.268 140.344 188.425 138.406 199.743C136.501 211.026 132.791 222.51 126.462 234.634L124.489 233.593C130.715 221.705 134.356 210.455 136.226 199.374C138.132 188.259 138.303 176.27 137.691 164.953" fill="#D9D9D9" fill-opacity="0.2"/>
</g>
<mask id="mask30_78_19" style="mask-type:luminance" maskUnits="userSpaceOnUse" x="-269" y="-68" width="917" height="993">
<path d="M647.366 -67.9603H-268.443V924.165H647.366V-67.9603Z" fill="white"/>
</mask>
<g mask="url(#mask30_78_19)">
<path d="M209.822 218.581L211.183 218.01L211.829 217.708C213.326 220.998 214.891 224.323 216.626 227.615C218.328 230.906 220.131 234.197 222.07 237.42C232.005 254.11 244.56 269.725 257.591 280.672L256.162 282.384C242.96 271.269 230.235 255.452 220.164 238.56C218.226 235.303 216.387 231.979 214.652 228.62C212.916 225.262 211.284 221.938 209.82 218.613" fill="#D9D9D9" fill-opacity="0.2"/>
</g>
<mask id="mask31_78_19" style="mask-type:luminance" maskUnits="userSpaceOnUse" x="-269" y="-68" width="917" height="993">
<path d="M647.366 -67.9603H-268.443V924.165H647.366V-67.9603Z" fill="white"/>
</mask>
<g mask="url(#mask31_78_19)">
<path d="M286.377 296.321C287.091 296.555 287.873 296.791 288.724 297.094C292.06 298.202 298.116 300.116 300.803 300.552L301.994 303.138C299.103 302.668 291.413 300.316 288.045 299.175C287.092 298.873 286.242 298.604 285.731 298.436" fill="#D9D9D9" fill-opacity="0.2"/>
</g>
<mask id="mask32_78_19" style="mask-type:luminance" maskUnits="userSpaceOnUse" x="-269" y="-68" width="917" height="993">
<path d="M647.366 -67.9603H-268.443V924.165H647.366V-67.9603Z" fill="white"/>
</mask>
<g mask="url(#mask32_78_19)">
<path d="M213.53 133.655C216.967 132.614 220.337 131.371 223.705 129.961C227.04 128.55 230.34 127.006 233.572 125.294C250.244 116.529 265.248 103.902 276.51 89.7309L278.245 91.108C266.779 105.515 251.535 118.342 234.626 127.241C231.327 128.987 227.957 130.566 224.555 132.01C221.154 133.42 217.683 134.696 214.178 135.771L214.109 135.536" fill="#D9D9D9" fill-opacity="0.2"/>
</g>
<mask id="mask33_78_19" style="mask-type:luminance" maskUnits="userSpaceOnUse" x="-269" y="-68" width="917" height="993">
<path d="M647.366 -67.9603H-268.443V924.165H647.366V-67.9603Z" fill="white"/>
</mask>
<g mask="url(#mask33_78_19)">
<path d="M210.197 146.046C222.446 143.527 234.592 137.886 246.092 130.464C259.771 121.666 273.108 109.207 283.18 97.7567L288.487 105.279C277.94 117.268 265.283 128.617 250.89 137.921C237.586 146.753 220.506 152.529 207.611 154.41" fill="#D9D9D9" fill-opacity="0.2"/>
</g>
<mask id="mask34_78_19" style="mask-type:luminance" maskUnits="userSpaceOnUse" x="-269" y="-68" width="917" height="993">
<path d="M647.366 -67.9603H-268.443V924.165H647.366V-67.9603Z" fill="white"/>
</mask>
<g mask="url(#mask34_78_19)">
<path d="M206.93 164.246C225.406 160.854 241.567 153.903 255.824 144.97C270.148 136.004 282.533 125.09 293.386 113.807L294.951 115.319C283.995 126.735 271.474 137.785 257.012 146.851C242.518 155.917 226.085 162.97 207.338 166.396" fill="#D9D9D9" fill-opacity="0.2"/>
</g>
<mask id="mask35_78_19" style="mask-type:luminance" maskUnits="userSpaceOnUse" x="-269" y="-68" width="917" height="993">
<path d="M647.366 -67.9603H-268.443V924.165H647.366V-67.9603Z" fill="white"/>
</mask>
<g mask="url(#mask35_78_19)">
<path d="M341.293 13.5682C341.021 17.5649 339.999 21.7286 339.183 25.6243C338.401 29.2509 337.55 32.8788 336.631 36.4717C331.868 55.1428 324.859 73.7803 314.787 89.2611L312.914 88.0522C322.85 72.8407 329.757 54.4038 334.486 35.9345C335.405 32.308 336.254 28.7151 337.004 25.1882C337.786 21.629 338.467 18.0684 339.08 14.5428" fill="#D9D9D9" fill-opacity="0.2"/>
</g>
<mask id="mask36_78_19" style="mask-type:luminance" maskUnits="userSpaceOnUse" x="-269" y="-68" width="917" height="993">
<path d="M647.366 -67.9603H-268.443V924.165H647.366V-67.9603Z" fill="white"/>
</mask>
<g mask="url(#mask36_78_19)">
<path d="M325.981 24.7844C325.062 33.817 321.899 46.1088 318.836 55.4444C316.216 63.4028 312.134 72.9403 308.356 79.5553L301.586 73.3428C305.023 67.2649 307.983 60.1115 310.432 52.6901C313.392 43.6238 315.638 34.2209 317.134 25.8922" fill="#D9D9D9" fill-opacity="0.2"/>
</g>
<mask id="mask37_78_19" style="mask-type:luminance" maskUnits="userSpaceOnUse" x="-269" y="-68" width="917" height="993">
<path d="M647.366 -67.9603H-268.443V924.165H647.366V-67.9603Z" fill="white"/>
</mask>
<g mask="url(#mask37_78_19)">
<path d="M300.872 50.3061C300.43 51.5149 299.579 53.8317 299.375 54.4697C297.945 58.5001 296.891 61.0861 294.986 64.8459L293.251 63.5024C295.087 59.8759 295.871 57.6601 297.232 53.7643C297.538 52.8247 297.913 52.0184 298.151 51.3803" fill="#D9D9D9" fill-opacity="0.2"/>
</g>
<mask id="mask38_78_19" style="mask-type:luminance" maskUnits="userSpaceOnUse" x="-269" y="-68" width="917" height="993">
<path d="M647.366 -67.9603H-268.443V924.165H647.366V-67.9603Z" fill="white"/>
</mask>
<g mask="url(#mask38_78_19)">
<path d="M299.511 53.2272C296.244 54.3351 292.944 55.6113 289.61 57.0893C286.31 58.5338 282.975 60.1451 279.71 61.8911C262.867 70.7892 247.25 82.9126 239.424 93.4907L237.656 92.1809C245.651 81.3686 261.576 68.9772 278.655 59.9095C281.99 58.1636 285.357 56.5173 288.725 55.0405C292.095 53.5625 295.463 52.2526 298.796 51.1447L298.83 51.1111" fill="#D9D9D9" fill-opacity="0.2"/>
</g>
<mask id="mask39_78_19" style="mask-type:luminance" maskUnits="userSpaceOnUse" x="-269" y="-68" width="917" height="993">
<path d="M647.366 -67.9603H-268.443V924.165H647.366V-67.9603Z" fill="white"/>
</mask>
<g mask="url(#mask39_78_19)">
<path d="M46.7097 50.6077C50.2474 51.6482 53.7191 52.8907 55.7599 53.7307C56.7803 54.1332 57.8357 54.5371 58.856 54.9396L58.1076 56.9884C56.7116 56.4836 55.7936 56.1147 54.9764 55.7795C52.9343 54.9732 51.3351 54.3015 47.9334 53.2272" fill="#D9D9D9" fill-opacity="0.2"/>
</g>
<mask id="mask40_78_19" style="mask-type:luminance" maskUnits="userSpaceOnUse" x="-269" y="-68" width="917" height="993">
<path d="M647.366 -67.9603H-268.443V924.165H647.366V-67.9603Z" fill="white"/>
</mask>
<g mask="url(#mask40_78_19)">
<path d="M87.3002 71.3949H87.3338C89.9871 73.3092 92.6417 75.5249 95.295 78.0113C97.9496 80.4626 100.603 83.1819 103.189 86.0371C116.458 100.779 128.367 119.854 132.892 131.841L130.817 132.648C126.359 120.827 114.655 102.089 101.556 87.5151C99.0036 84.6949 96.384 82.0417 93.798 79.624C91.1784 77.2063 88.5925 75.0242 86.0402 73.1759" fill="#D9D9D9" fill-opacity="0.2"/>
</g>
</g>
</g>
<path d="M261.733 232.529C297.284 260.401 311.974 289.964 317.977 320.232L327.448 324.442C319.372 283.019 300.636 248.778 266.108 224.989L261.733 232.529Z" fill="#D9D9D9" fill-opacity="0.2"/>
<path d="M270.204 217.709L270.047 217.997C282.737 224.638 327.478 256.537 342.35 338.84L344.458 339.268C341.397 309.502 321.497 247.194 271.639 216.058L270.204 217.709Z" fill="#D9D9D9" fill-opacity="0.2"/>
<path d="M255.601 242.139C278.107 259.336 290.296 279.594 298.51 301.034L301.875 303.053C293.062 281.727 288.541 264.581 257.115 240.457L255.601 242.139Z" fill="#D9D9D9" fill-opacity="0.2"/>
</g>
<defs>
<clipPath id="clip0_78_19">
<rect width="350" height="350" fill="white"/>
</clipPath>
</defs>
</svg>
