<?xml version="1.0" encoding="UTF-8" standalone="no"?>
<!-- Created with Inkscape (http://www.inkscape.org/) -->

<svg
   xmlns:dc="http://purl.org/dc/elements/1.1/"
   xmlns:cc="http://creativecommons.org/ns#"
   xmlns:rdf="http://www.w3.org/1999/02/22-rdf-syntax-ns#"
   xmlns:svg="http://www.w3.org/2000/svg"
   xmlns="http://www.w3.org/2000/svg"
   xmlns:xlink="http://www.w3.org/1999/xlink"
   xmlns:sodipodi="http://sodipodi.sourceforge.net/DTD/sodipodi-0.dtd"
   xmlns:inkscape="http://www.inkscape.org/namespaces/inkscape"
   version="1.1"
   width="260"
   height="260"
   id="svg2"
   inkscape:version="0.48.1 "
   sodipodi:docname="Blue_monastery_ornament_fragment.svg">
  <sodipodi:namedview
     pagecolor="#ffffff"
     bordercolor="#666666"
     borderopacity="1"
     objecttolerance="10"
     gridtolerance="10"
     guidetolerance="10"
     inkscape:pageopacity="0"
     inkscape:pageshadow="2"
     inkscape:window-width="1304"
     inkscape:window-height="746"
     id="namedview63"
     showgrid="false"
     inkscape:zoom="1"
     inkscape:cx="92.764131"
     inkscape:cy="65.320101"
     inkscape:window-x="54"
     inkscape:window-y="-8"
     inkscape:window-maximized="0"
     inkscape:current-layer="svg2" />
  <defs
     id="defs4" />
  <metadata
     id="metadata7">
    <rdf:RDF>
      <cc:Work
         rdf:about="">
        <dc:format>image/svg+xml</dc:format>
        <dc:type
           rdf:resource="http://purl.org/dc/dcmitype/StillImage" />
        <dc:title />
      </cc:Work>
    </rdf:RDF>
  </metadata>
  <g
     transform="translate(-288.36471,-222.16997)"
     id="layer1">
    <g
       transform="translate(32.950324,-72.306795)"
       id="g2986">
      <defs
         id="defs2988">
        <rect
           width="278.12601"
           height="249.44901"
           x="246.08701"
           y="300.685"
           id="SVGID_1_" />
      </defs>
      <clipPath
         id="SVGID_2_">
        <use
           id="use2992"
           style="overflow:visible"
           x="0"
           y="0"
           width="1"
           height="1"
           xlink:href="#SVGID_1_" />
      </clipPath>
      <g
         clip-path="url(#SVGID_2_)"
         id="g2994">
        <defs
           id="defs2996">
          <rect
             width="680.315"
             height="737.008"
             x="56"
             y="243.992"
             id="SVGID_3_" />
        </defs>
        <clipPath
           id="SVGID_4_">
          <use
             id="use3000"
             style="overflow:visible"
             x="0"
             y="0"
             width="1"
             height="1"
             xlink:href="#SVGID_3_" />
        </clipPath>
        <g
           clip-path="url(#SVGID_4_)"
           id="g3002">
          <defs
             id="defs3004">
            <rect
               width="680.315"
               height="737.00702"
               x="56"
               y="243.992"
               id="SVGID_5_" />
          </defs>
          <clipPath
             id="SVGID_6_">
            <use
               id="use3008"
               style="overflow:visible"
               x="0"
               y="0"
               width="1"
               height="1"
               xlink:href="#SVGID_5_" />
          </clipPath>
          <path
             d="m 425.513,390.096 0,0 c -1.416,-1.622 -2.907,-3.193 -4.524,-4.665 -1.618,-1.472 -3.312,-2.894 -5.08,-4.191 -9.176,-6.735 -20.448,-10.976 -32.378,-10.976 -3.083,0 -5.89,0.224 -8.594,0.673 -2.729,0.449 -5.358,1.147 -8.139,2.071 l -0.53,-1.547 c 2.855,-0.973 5.586,-1.671 8.391,-2.146 2.831,-0.474 5.713,-0.698 8.872,-0.698 12.31,0 23.91,4.365 33.338,11.3 1.845,1.347 3.589,2.794 5.232,4.316 1.643,1.521 3.21,3.118 4.676,4.814 l 0.025,0.025 -0.683,0.549 -0.581,0.499 -0.025,-0.024 m -7.356,78.33 0,0 c 1.618,-1.422 3.21,-2.968 4.777,-4.615 1.542,-1.671 3.033,-3.417 4.474,-5.289 7.254,-9.479 12.385,-21.354 11.197,-33.104 -0.304,-2.943 -0.708,-5.712 -1.239,-8.457 -0.556,-2.719 -1.238,-5.388 -2.148,-8.107 l 1.567,-0.524 c 0.91,2.794 1.643,5.513 2.199,8.307 0.53,2.769 0.935,5.588 1.238,8.606 1.238,12.223 -4.019,24.497 -11.525,34.276 -1.44,1.92 -2.982,3.717 -4.575,5.413 -1.566,1.696 -3.21,3.268 -4.878,4.74 h -0.025 l -1.062,-1.246 z m -76.862,-5.339 c 0,0.025 0.025,0.05 0.025,0.05 l 0.531,-0.549 -0.556,0.499 z m -0.05,-0.049 c 0.025,0.025 0.025,0.05 0.05,0.05 l 0.556,-0.499 0.025,-0.025 -0.631,0.474 z m 1.238,-1.073 c 0,0 0.025,0.025 0.025,0.05 1.441,1.572 2.932,3.068 4.499,4.465 1.592,1.422 3.26,2.744 5.004,3.967 8.922,6.261 19.816,9.953 31.519,9.953 2.628,0 5.46,-0.199 8.239,-0.549 0.379,-0.05 0.834,-0.1 1.34,-0.174 2.301,-0.35 4.524,-0.798 6.521,-1.372 l 0.455,1.571 c -2.073,0.599 -4.373,1.073 -6.749,1.422 -0.379,0.05 -0.834,0.125 -1.364,0.2 -2.882,0.349 -5.764,0.549 -8.442,0.549 -12.057,0 -23.253,-3.817 -32.479,-10.278 -1.794,-1.247 -3.487,-2.594 -5.13,-4.041 -1.643,-1.472 -3.185,-3.019 -4.625,-4.615 l -0.05,-0.075 c -0.025,-0.025 0,0 0,0 l 0.632,-0.474 0.605,-0.599 z m 4.802,-80.176 c -0.025,0.025 -0.05,0.05 -0.076,0.075 l 0.556,0.549 -0.48,-0.624 z m 0.051,-0.05 c 0,0.025 -0.025,0.05 -0.051,0.05 l 0.48,0.624 h 0.025 l -0.454,-0.674 z m 1.036,1.272 c -0.025,0.025 -0.05,0.05 -0.076,0.075 l 0,0 c -1.769,1.422 -3.438,2.918 -4.979,4.49 -1.542,1.597 -2.983,3.293 -4.297,5.039 -6.825,9.03 -10.565,20.206 -10.565,32.704 v 0.025 c 0.025,3.193 0.278,6.336 0.809,9.38 0.101,0.474 0.177,0.973 0.278,1.472 0.531,2.544 1.213,5.014 2.047,7.409 l -1.542,0.549 c -0.884,-2.469 -1.592,-5.014 -2.123,-7.633 -0.076,-0.474 -0.177,-0.998 -0.278,-1.521 -0.531,-3.144 -0.834,-6.361 -0.834,-9.654 v -0.025 c 0,-12.872 3.867,-24.372 10.894,-33.702 1.365,-1.796 2.856,-3.542 4.448,-5.164 1.592,-1.671 3.311,-3.218 5.131,-4.665 l 0.051,-0.05 0.455,0.673 0.581,0.598 z"
             clip-path="url(#SVGID_6_)"
             id="path3010" />
          <path
             d="m 433.651,386.029 c -5.965,-7.583 -13.599,-13.77 -22.344,-18.036 -8.392,-4.091 -17.819,-6.386 -27.777,-6.386 -3.968,0 -7.81,0.349 -11.501,1.022 -3.816,0.699 -6.016,1.147 -9.604,2.52 l -3.842,-5.563 c 3.892,-1.472 7.986,-2.644 12.258,-3.417 4.146,-0.748 8.392,-1.147 12.688,-1.147 10.97,0 21.383,2.52 30.659,7.06 9.655,4.69 18.046,11.525 24.618,19.882 m -16.15,93.721 c 7.305,-5.987 14.407,-14.519 18.477,-23.1 3.942,-8.257 6.142,-17.512 6.142,-27.266 0,-3.966 -0.278,-7.559 -0.885,-11.051 -0.606,-3.467 -1.542,-6.835 -2.831,-10.303 l 5.99,-2.894 c 1.467,3.867 2.654,8.208 3.312,12.099 0.683,3.867 0.985,7.858 0.985,12.149 0,10.752 -2.426,20.93 -6.773,30.06 -4.499,9.504 -12.814,19.158 -20.853,25.719 l -3.564,-5.413 z M 333.89,465.233 c 5.965,7.409 13.547,13.446 22.191,17.587 8.315,4.016 17.642,6.236 27.449,6.236 3.665,0 7.254,-0.299 10.717,-0.898 3.563,-0.599 6.445,-0.898 9.781,-2.07 l 2.78,5.588 c -3.69,1.297 -7.532,2.295 -11.449,2.968 -3.867,0.674 -7.811,0.998 -11.829,0.998 -10.843,0 -21.104,-2.47 -30.28,-6.86 -9.528,-4.59 -17.895,-11.25 -24.466,-19.433 l 5.106,-4.116 z m 10.362,-89.955 c -7.886,5.937 -13.295,12.747 -17.744,21.653 -4.296,8.557 -6.723,18.211 -6.723,28.389 0,4.016 0.379,7.883 1.062,11.6 0.708,3.842 1.77,7.584 3.16,11.176 l -5.813,3.318 c -1.517,-3.917 -3.008,-9.005 -3.816,-13.296 -0.758,-4.191 -1.163,-8.457 -1.163,-12.797 0,-11.226 2.654,-21.878 7.38,-31.332 4.929,-9.804 11.323,-17.413 20.018,-23.948 l 3.639,5.237 z"
             clip-path="url(#SVGID_6_)"
             id="path3012"
             style="stroke-width:12.10000038;stroke-miterlimit:4;stroke-dasharray:none" />
          <path
             d="m 445.202,377.348 h -0.025 0.025 c -2.022,-2.544 -4.171,-4.989 -6.496,-7.259 -2.3,-2.27 -4.752,-4.416 -7.33,-6.411 -13.27,-10.228 -29.951,-16.39 -47.846,-16.39 -5.435,0 -10.489,0.474 -15.393,1.472 -4.878,0.973 -9.604,2.469 -14.28,4.49 l -0.658,-1.522 c 4.803,-2.045 9.631,-3.567 14.609,-4.59 5.005,-0.998 10.186,-1.497 15.722,-1.497 18.274,0 35.284,6.287 48.857,16.739 2.628,2.021 5.131,4.216 7.481,6.536 2.376,2.345 4.574,4.814 6.622,7.409 l -1.036,0.823 -0.252,0.2 m -14.331,110.436 c -0.025,0.025 -0.051,0.025 -0.025,0 l 0.075,-0.1 0.102,-0.1 c 2.477,-1.996 4.878,-4.191 7.153,-6.536 2.274,-2.32 4.423,-4.815 6.445,-7.459 10.337,-13.521 16.959,-30.609 16.959,-48.271 0,-5.388 -0.48,-10.428 -1.44,-15.292 -0.961,-4.864 -2.401,-9.554 -4.397,-14.219 l 1.516,-0.648 c 2.022,4.765 3.514,9.579 4.499,14.543 0.986,4.989 1.467,10.128 1.467,15.616 0,18.036 -6.749,35.473 -17.314,49.268 -2.047,2.669 -4.246,5.239 -6.571,7.609 -2.274,2.37 -4.701,4.59 -7.229,6.61 -0.025,0.05 -0.076,0.075 -0.127,0.1 l -0.454,-0.674 -0.659,-0.447 z m 0.177,-0.175 c -0.051,0.05 -0.151,0.15 -0.177,0.175 l 0.657,0.449 v -0.025 l -0.48,-0.599 z m 0.025,-0.049 c 0,0 -0.025,0.025 -0.025,0.05 l 0.48,0.599 -0.455,-0.649 z m -108.76,-13.621 0.025,0.025 c 1.971,2.569 4.12,4.989 6.395,7.259 2.274,2.245 4.701,4.366 7.254,6.336 13.067,10.053 29.521,15.816 47.543,15.816 5.055,0 10.009,-0.474 14.786,-1.397 0.783,-0.175 1.566,-0.325 2.325,-0.499 3.943,-0.898 7.81,-2.096 11.525,-3.567 l 0.606,1.547 c -3.791,1.497 -7.709,2.719 -11.778,3.617 -0.809,0.199 -1.592,0.349 -2.376,0.499 -4.878,0.948 -9.933,1.447 -15.089,1.447 -18.4,0 -35.184,-5.887 -48.554,-16.165 -2.603,-1.996 -5.055,-4.141 -7.405,-6.486 -2.326,-2.295 -4.499,-4.765 -6.521,-7.384 l -0.025,-0.025 0.531,-0.399 0.758,-0.624 z m 12.941,-109.962 0,0 -0.025,0.025 c -2.604,1.996 -5.055,4.141 -7.355,6.436 -2.3,2.27 -4.449,4.69 -6.445,7.259 -10.161,13.097 -15.949,29.486 -15.949,47.622 v 0.025 c 0,5.363 0.632,10.727 1.769,15.94 0.177,0.848 0.379,1.696 0.582,2.52 1.087,4.316 2.477,8.457 4.145,12.374 l -1.517,0.624 c -1.693,-3.992 -3.134,-8.232 -4.221,-12.598 -0.202,-0.874 -0.404,-1.722 -0.606,-2.57 -1.138,-5.313 -1.795,-10.801 -1.795,-16.29 v -0.025 c 0,-18.51 5.889,-35.273 16.303,-48.645 2.022,-2.595 4.196,-5.064 6.572,-7.409 2.351,-2.32 4.853,-4.515 7.506,-6.561 0,0 0,0 0.025,0 l 0.404,0.549 0.607,0.724 z"
             clip-path="url(#SVGID_6_)"
             id="path3014" />
          <path
             d="m 428.116,335.588 -0.178,0.375 m 0,0 -0.024,0 z m -0.024,0 z m 0.202,-0.375 -0.202,0.375 c -1.82,-0.898 -3.716,-1.746 -5.662,-2.544 -1.946,-0.798 -3.918,-1.572 -5.914,-2.27 -10.338,-3.592 -21.637,-5.788 -32.808,-5.788 -15.064,0 -29.37,3.343 -42.185,9.354 -2.073,0.973 -4.145,2.021 -6.142,3.144 -10.337,5.737 -19.538,13.246 -27.221,22.102 l -1.239,-1.073 c 7.81,-9.005 17.162,-16.639 27.651,-22.477 2.047,-1.123 4.12,-2.195 6.243,-3.193 13.067,-6.087 27.601,-9.504 42.893,-9.504 11.374,0 22.823,2.22 33.338,5.887 2.072,0.724 4.069,1.497 6.016,2.295 1.972,0.823 3.893,1.671 5.737,2.569 z m 0.505,-1.122 0,0 c 0.025,0.025 0.025,0.025 0.025,0.025 l 0,0 c 0,0 0,0 -0.025,-0.025 z m -0.707,1.497 c 0,0 0.101,0.025 0.05,0.025 l 0.278,-0.699 -0.126,0.299 -0.178,0.375 0.025,0.025 0.278,-0.699 0.404,-0.798 z m 45.47841,133.128 c 6.48168,-13.22763 10.12859,-28.07813 10.12859,-43.746 l 0,-0.025 c 0,-15.691 -3.235,-30.209 -9.327,-43.082 -0.985,-2.095 -2.047,-4.166 -3.185,-6.161 -5.863,-10.328 -13.674,-19.458 -23.202,-27.117 l 1.036,-1.297 c 9.681,7.808 17.616,17.113 23.582,27.615 1.162,2.045 2.249,4.116 3.26,6.261 6.192,13.097 9.479,27.84 9.479,43.78 l 0,0.025 c 0,15.94802 -3.71596,31.06861 -10.32245,44.53336 m -12.55697,19.57245 c -2.18546,2.67919 -4.50412,5.2454 -6.94558,7.68819 -18.4,18.41 -43.827,29.811 -71.807,29.811 -8.468,0 -16.505,-0.973 -24.214,-2.844 -7.684,-1.896 -15.014,-4.715 -22.04,-8.407 l 0.757,-1.471 c 6.925,3.643 14.129,6.411 21.686,8.282 7.558,1.846 15.469,2.794 23.81,2.794 27.524,0 52.522,-11.226 70.645,-29.336 2.45692,-2.45882 4.7876,-5.04453 6.98103,-7.7462 M 294.637,379.618 l 0,0.025 c -0.985,1.921 -1.921,3.867 -2.78,5.862 -0.859,1.971 -1.668,3.992 -2.401,6.062 -3.792,10.552 -5.915,21.978 -5.915,33.752 l 0,0.025 c 0,15.267 3.463,29.761 9.63,42.732 1.011,2.096 2.073,4.166 3.235,6.187 5.889,10.428 13.573,19.708 22.672,27.391 l -1.062,1.272 c -9.251,-7.833 -17.061,-17.238 -23.051,-27.84 -1.163,-2.07 -2.25,-4.166 -3.286,-6.311 -6.268,-13.197 -9.782,-27.915 -9.782,-43.431 l 0,-0.025 c 0,-11.974 2.148,-23.574 6.016,-34.301 0.733,-2.095 1.567,-4.141 2.452,-6.187 0.859,-2.021 1.795,-3.991 2.806,-5.937 l 0,0 0.404,0.199 z"
             clip-path="url(#SVGID_6_)"
             id="path3016"
             inkscape:connector-curvature="0"
             sodipodi:nodetypes="cccccccccscsccccccscccccccccccccccccccssccccccssccssccccsccccccssccccccsscccccc" />
          <path
             d="m 435.749,329.726 c -24.846,-11.924 -46.026,-15.341 -69.685,-11.45 -23.606,3.867 -46.506,15.966 -63.416,34.575 l -4.347,-4.939 c 17.945,-19.732 41.679,-32.006 66.728,-36.122 25.047,-4.116 52.724,0.973 75.876,13.945 m 38.80537,150.05838 c 7.96421,-15.09452 12.47763,-32.27277 12.47763,-50.47438 0,-16.065 -3.513,-31.307 -9.807,-45.027 -6.521,-14.27 -15.494,-26.318 -27.222,-36.471 l 5.46,-3.168 c 11.98,10.976 20.802,21.778 27.752,36.92 6.673,14.568 10.389,30.758 10.389,47.747 0,20.40643 -5.3438,39.59758 -14.70331,56.24272 m -13.43778,18.95479 c -2.43793,2.97384 -2.95891,3.51136 -5.67691,6.22649 -20.853,20.88 -49.666,33.827 -81.412,33.827 -10.237,0 -20.17,-1.347 -29.647,-3.892 -9.808,-2.619 -20.095,-7.16 -28.663,-12.099 l 4.979,-4.166 c 8.113,4.665 16.176,7.458 25.377,9.928 8.922,2.37 18.273,3.642 27.954,3.642 29.926,0 57.071,-12.198 76.761,-31.881 2.32689,-2.32606 4.54928,-4.75666 6.65939,-7.28402 M 289.203,371.885 c -4.751,8.232 -7.658,15.292 -10.363,25.071 -2.527,9.155 -3.968,18.785 -3.968,28.364 0,15.591 3.539,30.584 9.731,44.129 6.521,14.319 16.024,27.091 27.449,37.344 l -5.358,3.867 c -12.057,-10.827 -21.156,-23.3 -28.081,-38.492 -6.572,-14.419 -10.313,-30.31 -10.313,-46.849 0,-10.128 1.517,-20.356 4.221,-30.135 2.831,-10.303 7.001,-20.106 12.031,-28.813 z"
             clip-path="url(#SVGID_6_)"
             id="path3018"
             style="stroke-width:12.10000038;stroke-miterlimit:4;stroke-dasharray:none"
             inkscape:connector-curvature="0"
             sodipodi:nodetypes="cccccccsccccscccsccccsscccsccccsccc" />
          <path
             d="m 448.21,321.444 0,0 -0.025,0 c -2.629,-1.646 -5.308,-3.193 -8.088,-4.64 -2.755,-1.447 -5.561,-2.794 -8.442,-4.041 -14.786,-6.336 -31.063,-9.879 -48.124,-9.879 -17.39,0 -33.793,3.518 -48.655,9.954 -2.426,1.048 -4.802,2.17 -7.127,3.368 -11.98,6.162 -22.824,14.319 -32.175,24.123 l -1.188,-1.147 c 9.478,-9.928 20.448,-18.186 32.605,-24.447 2.401,-1.223 4.802,-2.37 7.229,-3.417 15.064,-6.511 31.695,-10.079 49.313,-10.079 17.288,0 33.793,3.567 48.781,10.028 2.906,1.248 5.763,2.62 8.543,4.066 2.806,1.472 5.535,3.043 8.215,4.715 l -0.354,0.549 m 39.7764,167.65239 C 499.57866,469.84416 505.965,448.31237 505.965,425.344 l 0,-0.025 c 0,-17.587 -3.514,-33.952 -10.009,-48.695 -1.062,-2.395 -2.199,-4.74 -3.412,-7.06 C 486.3,357.666 478.01,346.914 468,337.56 l 1.138,-1.223 c 10.136,9.504 18.526,20.381 24.871,32.455 1.213,2.345 2.376,4.74 3.463,7.185 6.571,14.943 10.135,31.532 10.135,49.343 l 0,0.025 c 0,23.49441 -6.59143,45.51311 -18.02094,64.28518 m -15.31514,20.20438 c -1.00138,1.07473 -2.02153,2.13172 -3.05992,3.17044 -22.495,22.477 -53.508,36.421 -87.68,36.421 -12.461,0 -24.087,-1.646 -35.032,-4.865 -10.969,-3.243 -21.231,-8.058 -30.962,-14.418 l 0.884,-1.398 c 9.63,6.312 19.74,11.051 30.533,14.244 10.792,3.168 22.267,4.79 34.577,4.79 33.717,0 64.325,-13.771 86.518,-35.947 1.27102,-1.27165 2.51437,-2.57103 3.72905,-3.89713 M 281.064,358.29 l 0,0 c -1.769,2.694 -3.412,5.463 -4.954,8.282 -1.542,2.844 -2.982,5.763 -4.296,8.756 -6.85,15.317 -10.717,32.355 -10.717,49.992 l 0,0.025 c 0,17.637 3.589,34.251 10.186,49.218 1.062,2.445 2.225,4.84 3.438,7.185 6.344,12.099 14.71,23 24.77,32.355 l -1.137,1.197 c -10.186,-9.479 -18.679,-20.53 -25.073,-32.779 -1.264,-2.395 -2.426,-4.814 -3.513,-7.284 -6.673,-15.192 -10.313,-32.031 -10.313,-49.892 l 0,-0.025 c 0,-17.861 3.917,-35.149 10.843,-50.666 1.365,-3.018 2.806,-5.987 4.373,-8.855 1.567,-2.894 3.235,-5.688 5.004,-8.407 l 0.025,0 0.96,0.648 z"
             clip-path="url(#SVGID_6_)"
             id="path3020"
             inkscape:connector-curvature="0"
             sodipodi:nodetypes="cccccsccccccscccccssccccccsscccsccccsccccccssccccccsscccccc" />
          <path
             d="m 317.258,322.143 0,0 h -0.025 c -2.072,-1.197 -4.221,-2.345 -6.395,-3.393 -2.199,-1.073 -4.449,-2.07 -6.774,-3.019 -11.93,-4.839 -25.048,-7.982 -37.989,-9.23 l -0.202,-1.746 c 13.118,1.297 26.741,4.565 38.798,9.455 2.351,0.948 4.65,1.971 6.875,3.068 2.275,1.098 4.449,2.245 6.521,3.442 m 57.501,75.437 c 0,0 0,0 -0.025,-0.025 -0.859,-3.143 -1.896,-6.261 -3.084,-9.379 -1.162,-3.118 -2.502,-6.187 -3.968,-9.205 -7.507,-15.542 -18.552,-29.835 -31.088,-40.862 l 1.087,-1.222 c 12.688,11.151 23.86,25.62 31.493,41.385 1.491,3.068 2.831,6.187 4.02,9.33 1.213,3.118 2.451,6.91 3.361,10.128 l -0.178,0.025 -0.05,-0.624 v 0.025 c 0.024,0.025 0,-0.025 0,-0.025 l 0,0 0.101,0.723 -0.632,0.1 0.531,-0.798 -0.632,0.848 -0.936,-0.424 z m -7.506,82.621 c 0,-0.025 0,-0.025 0,0 z m 0,0 c -0.026,0.026 -0.026,0 0,0 z m -1.492,-0.748 h 0.025 v -0.025 c 1.238,-2.47 2.401,-5.014 3.463,-7.634 1.062,-2.619 2.047,-5.313 2.957,-8.033 4.574,-14.094 6.773,-29.486 5.914,-43.755 l 1.643,-0.1 c 0.859,14.469 -1.339,30.085 -5.99,44.354 -0.909,2.769 -1.92,5.513 -3.008,8.158 -1.086,2.669 -2.249,5.263 -3.513,7.758 v 0.025 l -1.491,-0.748 z m 0,0 c 0,0.025 0,0.05 0,0 z m 0,0 c 0.026,0 0.026,0 0,0 z m -103.325,66.431 0.278,-0.05 c 5.03,-0.375 10.009,-1.023 14.887,-1.946 4.878,-0.923 9.706,-2.096 14.432,-3.542 24.214,-7.434 45.597,-21.553 60.382,-40.587 l 1.289,0.998 c -14.988,19.308 -36.674,33.652 -61.191,41.161 -4.752,1.447 -9.63,2.644 -14.609,3.592 -4.979,0.923 -10.464,1.622 -15.544,1.996 h -0.202 l 0.278,-1.622 z"
             clip-path="url(#SVGID_6_)"
             id="path3022" />
          <path
             d="m 305.227,330.125 c -5.257,-2.769 -9.124,-4.166 -14.912,-6.686 -5.637,-2.295 -10.414,-4.316 -16.277,-5.638 l -1.239,-5.613 c 13.472,2.694 25.579,6.91 37.711,13.296 m 51.283,69.102 c -3.209,-9.954 -8.037,-18.959 -13.926,-27.615 -5.99,-8.781 -13.927,-17.188 -22.141,-23.973 l 5.434,-3.941 c 8.669,7.185 15.797,14.917 22.116,24.198 6.269,9.18 11.98,21.304 15.367,31.881 l -6.85,-0.55 z m -7.33,77.731 c 3.867,-7.234 6.9,-14.917 8.948,-22.925 1.997,-7.708 3.032,-15.716 3.032,-23.848 0,-1.123 -0.024,-2.245 -0.05,-3.418 -0.051,-1.047 -0.101,-2.844 -0.202,-4.091 l 6.597,-0.449 c 0.075,1.123 0.151,2.994 0.177,4.316 0.051,1.172 0.076,2.37 0.076,3.642 0,8.681 -1.138,17.237 -3.235,25.47 -2.174,8.481 -5.409,16.664 -9.554,24.397 l -5.789,-3.094 z m -81.917,57.351 c 13.345,-1.746 26.084,-6.112 37.66,-12.548 11.93,-6.636 22.318,-14.419 31.088,-24.821 l 5.308,3.193 c -9.276,10.977 -20.574,20.331 -33.212,27.366 -12.258,6.835 -28.131,11.476 -42.311,13.346 l 1.467,-6.536 z"
             clip-path="url(#SVGID_6_)"
             id="path3024"
             style="stroke-width:12.10000038;stroke-miterlimit:4;stroke-dasharray:none" />
          <path
             d="m 420.786,355.246 c 9.377,-10.926 21.029,-20.705 33.793,-27.989 12.486,-7.16 28.788,-12.423 43.12,-14.918 l -1.441,6.636 c -13.547,2.345 -26.59,7.209 -38.418,13.97 -12.133,6.96 -23.001,15.916 -31.848,26.268 m -31.721,74.014 c -0.075,-1.147 -0.15,-2.445 -0.201,-3.841 -0.025,-1.248 -0.051,-2.52 -0.051,-3.842 0,-8.631 1.213,-17.263 3.412,-25.645 2.274,-8.731 5.661,-17.138 9.857,-24.921 l 5.788,3.118 c -3.969,7.334 -7.153,15.267 -9.302,23.474 -2.047,7.808 -3.185,15.891 -3.185,23.973 0,1.172 0.025,2.37 0.076,3.617 0.051,1.073 0.101,3.318 0.202,4.64 l -6.596,-0.573 z m 41.301,78.53 c -8.973,-7.384 -16.707,-15.641 -23.102,-25.37 -6.269,-9.529 -12.259,-21.753 -15.343,-32.879 l 7.432,0.798 c 2.881,10.402 7.481,19.433 13.421,28.438 6.066,9.255 14.356,18.385 22.773,25.295 l -5.181,3.718 z m 63.441,25.295 c -6.597,-0.848 -15.771,-2.32 -23.43,-4.565 -6.622,-1.946 -13.674,-4.864 -18.603,-7.608 l 4.727,-4.865 c 4.474,2.47 9.528,4.341 15.695,6.162 7.355,2.146 13.952,3.193 20.246,4.017 l 1.365,6.859 z"
             clip-path="url(#SVGID_6_)"
             id="path3026"
             style="stroke-width:12.10000038;stroke-miterlimit:4;stroke-dasharray:none" />
          <path
             d="m 412.243,351.255 0.126,-0.15 c 3.135,-3.941 6.521,-7.683 10.136,-11.201 3.615,-3.518 7.431,-6.835 11.449,-9.904 20.701,-15.766 46.785,-25.245 74.967,-25.445 l -0.151,1.597 c -27.828,0.2 -53.407,9.604 -73.804,25.146 -3.969,3.043 -7.76,6.312 -11.324,9.779 -3.563,3.467 -6.899,7.16 -10.009,11.051 l -0.101,0.149 m -27.449,81.224 v -0.05 c 0.075,-1.821 0.075,-3.817 0.05,-5.738 0,-0.723 0,-1.472 0,-2.17 v -0.025 c 0,-9.58 1.139,-18.934 3.312,-27.915 0.38,-1.472 0.759,-2.919 1.163,-4.341 2.098,-7.409 4.903,-14.519 8.315,-21.304 l 1.466,0.748 c -3.387,6.661 -6.142,13.695 -8.215,21.005 -0.404,1.447 -0.783,2.869 -1.111,4.291 -2.148,8.831 -3.286,18.061 -3.286,27.516 v 0.025 c 0,0.698 0,1.422 0,2.17 0.025,1.946 0.051,3.967 -0.05,5.813 l 0,0 v 0.05 l -1.644,-0.075 z m 42.058,82.671 0,0 v -0.025 c -2.628,-2.27 -5.206,-4.64 -7.658,-7.134 -2.477,-2.495 -4.853,-5.064 -7.127,-7.758 -11.678,-13.77 -20.574,-30.035 -24.896,-47.796 l 1.592,-0.375 c 4.271,17.487 13.042,33.527 24.568,47.123 2.249,2.645 4.574,5.189 7.026,7.659 2.427,2.444 4.954,4.79 7.558,7.035 v 0.025 l -0.253,0.274 -0.81,0.972 z m 83.13,30.335 -1.062,0.025 c -11.197,0 -22.04,-1.472 -32.378,-4.191 -1.668,-0.449 -3.336,-0.923 -5.004,-1.447 -8.493,-2.619 -16.606,-6.137 -24.214,-10.377 l 0.809,-1.447 c 7.507,4.216 15.494,7.658 23.885,10.252 1.618,0.524 3.286,0.973 4.929,1.422 10.187,2.694 20.903,4.141 31.974,4.141 l 1.061,1.622 z"
             clip-path="url(#SVGID_6_)"
             id="path3028" />
          <path
             d="m 267.668,305.154 v 0.025 c 0.202,5.937 0.834,11.649 1.82,17.163 0.986,5.514 2.326,10.827 3.943,15.866 8.341,26.043 23.885,45.875 37.584,57.351 l -0.783,1.372 c -13.876,-11.649 -29.926,-31.831 -38.368,-58.224 -1.643,-5.139 -3.008,-10.502 -3.994,-16.065 -1.011,-5.588 -1.643,-11.45 -1.845,-17.438 0,-0.024 0,0 0,0"
             clip-path="url(#SVGID_6_)"
             id="path3030" />
          <path
             d="m 278.612,313.736 c 2.755,14.12 7.406,26.942 14.028,38.741 6.37,11.326 14.685,21.279 24.82,29.86 l -3.488,5.463 c -10.742,-9.105 -20.347,-20.107 -27.07,-32.105 -6.976,-12.423 -11.248,-28.688 -14.154,-43.481"
             clip-path="url(#SVGID_6_)"
             id="path3032"
             style="stroke-width:12.10000038;stroke-miterlimit:4;stroke-dasharray:none" />
          <path
             d="m 290.113,332.071 h 0.025 l 1.946,0.673 c 1.087,2.42 2.098,4.565 3.286,6.86 1.188,2.295 2.426,4.565 3.715,6.76 6.672,11.226 14.66,20.93 23.329,28.763 l -1.087,1.223 c -8.796,-7.933 -16.909,-17.762 -23.658,-29.162 -1.289,-2.195 -2.553,-4.49 -3.766,-6.81 -1.389,-2.694 -2.704,-5.463 -3.79,-8.307"
             clip-path="url(#SVGID_6_)"
             id="path3034" />
          <path
             d="m 341.902,387.975 0,0 c 1.491,0.724 3.21,1.422 5.131,2.096 1.896,0.673 3.968,1.322 6.192,1.92 11.399,3.094 26.084,5.064 36.928,4.416 l 0.102,1.646 c -11.021,0.674 -25.908,-1.347 -37.459,-4.465 -2.224,-0.624 -4.372,-1.272 -6.318,-1.971 -1.946,-0.673 -3.741,-1.397 -5.283,-2.146 l -0.025,-0.024"
             clip-path="url(#SVGID_6_)"
             id="path3036" />
          <path
             d="m 336.695,394.76 c 8.215,3.742 16.429,6.336 24.872,7.858 8.441,1.521 17.945,2.22 27.221,1.696 l -0.43,6.361 c -9.654,0.549 -18.906,0.05 -27.929,-1.596 -9.049,-1.646 -17.769,-4.391 -26.438,-8.307"
             clip-path="url(#SVGID_6_)"
             id="path3038"
             style="stroke-width:12.10000038;stroke-miterlimit:4;stroke-dasharray:none" />
          <path
             d="m 330.427,406.76 c 9.226,4.839 18.375,7.184 27.575,8.781 9.176,1.597 18.982,2.27 29.117,1.846 l 0.051,1.646 c -10.211,0.424 -20.119,-0.25 -29.445,-1.871 -9.353,-1.622 -18.679,-4.017 -28.082,-8.956"
             clip-path="url(#SVGID_6_)"
             id="path3040" />
          <path
             d="m 419.699,382.936 c -3.589,7.659 -6.571,15.866 -8.518,24.472 -1.947,8.606 -2.882,17.637 -2.376,26.991 l -1.644,0.1 c -0.53,-9.504 0.43,-18.685 2.427,-27.441 1.972,-8.756 5.005,-17.063 8.619,-24.821"
             clip-path="url(#SVGID_6_)"
             id="path3042" />
          <path
             d="m 379.688,432.828 c 10.464,-0.749 20.145,-0.299 29.445,1.497 9.327,1.821 18.249,4.989 27.247,9.679 l -0.758,1.472 c -8.847,-4.64 -17.643,-7.758 -26.792,-9.529 -9.15,-1.771 -18.679,-2.22 -29.017,-1.472"
             clip-path="url(#SVGID_6_)"
             id="path3044" />
          <path
             d="m 378.879,440.112 c 10.642,-0.749 17.896,-0.624 27.121,0.998 9.226,1.621 18.047,4.64 27.297,9.479 l -3.032,5.837 c -8.645,-4.515 -16.859,-7.334 -25.402,-8.831 -8.594,-1.497 -16.782,-1.921 -26.943,-1.198"
             clip-path="url(#SVGID_6_)"
             id="path3046"
             style="stroke-width:12.10000038;stroke-miterlimit:4;stroke-dasharray:none" />
          <path
             d="m 376.402,452.535 c 10.439,-0.599 18.4,-0.549 26.059,0.724 7.659,1.272 14.964,3.767 24.113,8.033 l -0.708,1.497 c -8.998,-4.216 -16.176,-6.661 -23.657,-7.908 -7.508,-1.248 -15.367,-1.297 -25.73,-0.699"
             clip-path="url(#SVGID_6_)"
             id="path3048" />
          <path
             d="m 281.62,494.295 0,0 c -1.34,2.021 -2.553,4.116 -3.715,6.262 -1.138,2.12 -2.199,4.365 -3.185,6.66 -5.105,11.75 -8.164,24.971 -9.882,38.018 l -1.618,-0.2 c 1.719,-13.222 4.802,-26.567 9.984,-38.467 0.985,-2.32 2.072,-4.565 3.26,-6.785 1.188,-2.22 2.426,-4.341 3.766,-6.386 h 0.025 v -0.025"
             clip-path="url(#SVGID_6_)"
             id="path3050" />
          <path
             d="m 289.102,504.099 c -2.907,4.515 -4.828,9.105 -6.824,14.394 -2.275,5.987 -3.842,11.051 -4.499,15.691 l -6.799,1.996 c 0.733,-5.039 2.705,-13.545 5.131,-19.981 2.148,-5.713 5.333,-12.074 8.518,-17.013"
             clip-path="url(#SVGID_6_)"
             id="path3052"
             style="stroke-width:12.10000038;stroke-miterlimit:4;stroke-dasharray:none" />
          <path
             d="m 294.586,510.584 c -0.809,1.597 -1.416,2.919 -1.997,4.266 -0.581,1.397 -1.062,2.52 -1.718,4.191 l -1.593,-0.349 c 0.683,-1.771 1.239,-3.168 1.82,-4.491 0.582,-1.372 1.188,-2.719 1.997,-4.34"
             clip-path="url(#SVGID_6_)"
             id="path3054" />
          <path
             d="m 289.607,517.919 0.051,-0.05 0.025,-0.025 c 1.542,-0.499 3.109,-1.123 4.979,-1.996 1.896,-0.873 3.918,-1.921 6.041,-3.118 10.944,-6.162 24.188,-16.165 33.414,-25.844 l 1.213,1.123 c -9.352,9.804 -22.748,19.932 -33.818,26.168 -2.148,1.198 -4.221,2.271 -6.142,3.168 -2.174,0.998 -4.398,1.746 -6.623,2.569"
             clip-path="url(#SVGID_6_)"
             id="path3056" />
          <path
             d="m 294.662,472.542 c 9.125,-11.351 19.311,-19.732 30.078,-25.869 10.792,-6.111 22.167,-9.978 33.616,-12.248 l 0.329,1.621 c -11.298,2.245 -22.521,6.037 -33.111,12.074 -10.616,6.012 -20.65,14.269 -29.623,25.445"
             clip-path="url(#SVGID_6_)"
             id="path3058" />
          <path
             d="m 299.035,479.951 c 9.276,-11.575 17.137,-19.383 26.337,-25.096 9.251,-5.738 20.574,-9.979 32.328,-12.323 l -1.037,6.86 c -10.994,2.17 -19.335,5.788 -27.828,11.051 -8.543,5.313 -17.415,13.171 -26.21,24.147"
             clip-path="url(#SVGID_6_)"
             id="path3060"
             style="stroke-width:12.10000038;stroke-miterlimit:4;stroke-dasharray:none" />
          <path
             d="m 306.112,489.381 c 7.127,-8.856 14.508,-15.542 22.217,-20.655 7.709,-5.139 15.771,-8.682 24.239,-11.301 l 0.48,1.572 c -8.316,2.569 -16.228,6.062 -23.81,11.101 -7.583,5.014 -14.836,11.575 -21.838,20.306"
             clip-path="url(#SVGID_6_)"
             id="path3062" />
          <path
             d="m 359.342,416.913 c 0.48,8.506 0.328,17.537 -1.112,25.944 -1.415,8.382 -4.171,16.913 -8.872,25.919 l -1.466,-0.773 c 4.625,-8.831 7.33,-17.188 8.719,-25.42 1.416,-8.257 1.543,-17.163 1.088,-25.57"
             clip-path="url(#SVGID_6_)"
             id="path3064" />
          <path
             d="m 411.282,456.851 0,0 1.011,-0.424 0.48,-0.224 c 1.112,2.444 2.275,4.914 3.564,7.359 1.264,2.445 2.603,4.89 4.044,7.284 7.38,12.398 16.707,23.998 26.387,32.13 l -1.062,1.272 c -9.807,-8.257 -19.26,-20.007 -26.741,-32.555 -1.44,-2.42 -2.806,-4.889 -4.095,-7.384 -1.289,-2.495 -2.502,-4.964 -3.589,-7.434"
             clip-path="url(#SVGID_6_)"
             id="path3072" />
          <path
             d="m 468.152,514.601 0,0 c 0.53,0.174 1.111,0.349 1.743,0.574 2.478,0.823 6.977,2.245 8.973,2.569 l 0.885,1.921 c -2.148,-0.349 -7.86,-2.096 -10.362,-2.944 -0.708,-0.224 -1.34,-0.424 -1.719,-0.549"
             clip-path="url(#SVGID_6_)"
             id="path3074" />
          <path
             d="m 414.037,393.763 0,0 c 2.553,-0.773 5.056,-1.696 7.558,-2.744 2.478,-1.048 4.929,-2.195 7.33,-3.467 12.385,-6.511 23.531,-15.891 31.897,-26.418 l 1.289,1.023 c -8.518,10.702 -19.842,20.231 -32.403,26.842 -2.451,1.297 -4.954,2.47 -7.481,3.542 -2.527,1.048 -5.105,1.996 -7.709,2.794 l 0,0 -0.051,-0.174"
             clip-path="url(#SVGID_6_)"
             id="path3076" />
          <path
             d="m 411.561,402.968 c 9.099,-1.871 18.122,-6.062 26.665,-11.575 10.161,-6.536 20.069,-15.791 27.551,-24.297 l 3.942,5.588 c -7.835,8.906 -17.237,17.337 -27.929,24.248 -9.883,6.561 -22.571,10.852 -32.15,12.249"
             clip-path="url(#SVGID_6_)"
             id="path3078"
             style="stroke-width:12.10000038;stroke-miterlimit:4;stroke-dasharray:none" />
          <path
             d="m 409.134,416.488 c 13.725,-2.52 25.73,-7.683 36.321,-14.319 10.641,-6.661 19.841,-14.768 27.903,-23.15 l 1.163,1.123 c -8.139,8.481 -17.44,16.689 -28.183,23.424 -10.767,6.735 -22.975,11.974 -36.901,14.519"
             clip-path="url(#SVGID_6_)"
             id="path3080" />
          <path
             d="m 508.946,304.556 c -0.202,2.969 -0.961,6.062 -1.567,8.956 -0.581,2.694 -1.213,5.389 -1.896,8.058 -3.538,13.87 -8.745,27.715 -16.227,39.215 l -1.391,-0.898 c 7.381,-11.3 12.512,-24.996 16.025,-38.716 0.682,-2.694 1.313,-5.363 1.87,-7.983 0.581,-2.644 1.087,-5.289 1.542,-7.908"
             clip-path="url(#SVGID_6_)"
             id="path3082" />
          <path
             d="m 497.572,312.888 c -0.683,6.71 -3.033,15.841 -5.308,22.776 -1.946,5.912 -4.979,12.997 -7.785,17.911 l -5.029,-4.615 c 2.553,-4.515 4.752,-9.829 6.571,-15.342 2.199,-6.735 3.867,-13.72 4.979,-19.907"
             clip-path="url(#SVGID_6_)"
             id="path3084"
             style="stroke-width:12.10000038;stroke-miterlimit:4;stroke-dasharray:none" />
          <path
             d="m 478.919,331.847 c -0.328,0.898 -0.96,2.619 -1.112,3.093 -1.062,2.994 -1.845,4.915 -3.26,7.708 l -1.289,-0.998 c 1.364,-2.694 1.946,-4.34 2.957,-7.234 0.228,-0.698 0.506,-1.297 0.683,-1.771"
             clip-path="url(#SVGID_6_)"
             id="path3086" />
          <path
             d="m 477.908,334.017 0,0 c -2.427,0.823 -4.878,1.771 -7.355,2.869 -2.451,1.073 -4.929,2.27 -7.354,3.567 -12.512,6.61 -24.113,15.616 -29.927,23.474 l -1.313,-0.973 c 5.939,-8.032 17.769,-17.237 30.456,-23.973 2.478,-1.297 4.979,-2.52 7.481,-3.617 2.503,-1.098 5.005,-2.071 7.481,-2.894 l 0.025,-0.025"
             clip-path="url(#SVGID_6_)"
             id="path3088" />
          <path
             d="m 290.113,332.071 c 2.628,0.773 5.207,1.696 6.723,2.32 0.758,0.299 1.542,0.599 2.3,0.898 l -0.556,1.522 c -1.037,-0.375 -1.719,-0.649 -2.326,-0.898 -1.517,-0.599 -2.705,-1.098 -5.232,-1.896"
             clip-path="url(#SVGID_6_)"
             id="path3090" />
          <path
             d="m 320.266,347.513 h 0.025 c 1.971,1.422 3.943,3.068 5.914,4.915 1.972,1.821 3.943,3.841 5.864,5.962 9.857,10.951 18.704,25.121 22.065,34.026 l -1.541,0.599 c -3.312,-8.781 -12.006,-22.701 -21.737,-33.527 -1.896,-2.095 -3.842,-4.066 -5.763,-5.862 -1.946,-1.796 -3.867,-3.417 -5.763,-4.79"
             clip-path="url(#SVGID_6_)"
             id="path3092" />
        </g>
      </g>
    </g>
  </g>
  <path
     style="fill:#000000;fill-opacity:1;stroke:none"
     d="m 194.43007,172.73549 c 26.40979,20.70493 37.32239,42.66638 41.78127,65.15111 l 7.03608,3.12715 c -5.99962,-30.77116 -19.91817,-56.20719 -45.56701,-73.87887 z"
     id="path3043"
     inkscape:connector-curvature="0"
     sodipodi:nodetypes="ccccc" />
  <path
     style="opacity:1;fill:#000000;fill-opacity:1;stroke:none"
     d="m 200.72266,161.72656 -0.11627,0.21373 c 9.4268,4.93359 42.6628,28.63019 53.71094,89.76953 l 1.56548,0.31752 C 253.60883,229.91614 238.82661,183.6302 201.78906,160.5 z"
     id="path3039"
     inkscape:connector-curvature="0"
     sodipodi:nodetypes="cccccc" />
  <path
     style="opacity:1;fill:#000000;fill-opacity:1;stroke:none"
     d="m 189.875,179.875 c 16.71855,12.77431 25.77362,27.82372 31.875,43.75 l 2.5,1.5 c -6.54652,-15.84214 -9.90539,-28.5792 -33.25,-46.5 z"
     id="path3041"
     inkscape:connector-curvature="0"
     sodipodi:nodetypes="ccccc" />
</svg>
