<svg width="237" height="65" viewBox="0 0 237 65" fill="none" xmlns="http://www.w3.org/2000/svg">
<path d="M104.022 3.25165C110.203 7.01571 113.435 13.1782 116.106 19.7721C116.194 19.9616 116.228 20.2055 116.434 20.3065C117.024 16.5748 116.175 13.0802 118.056 11.9408C118.417 11.9019 119.205 13.0006 119.388 14.3943C119.63 16.3748 119.355 19.6428 119.783 20.4172C121.475 17.3357 124.559 4.6346 137.771 0.90452C148.815 -2.20327 155.978 3.32703 157.981 9.29788C159.91 14.8973 155.568 19.7186 150.802 17.6412C147.155 16.3113 147.536 10.2031 151.744 11.1537C152.136 11.2913 152.598 11.4432 152.8 11.8452C152.188 11.8801 151.578 11.638 150.972 11.7961C148.597 12.3423 149.323 15.938 152.235 16.5415C155.215 17.0503 159.043 14.0193 156.13 8.66367C151.242 -0.136917 139.247 1.72376 132.858 5.46858C125.214 9.91989 121.398 19.3703 121.298 20.6077C123.474 19.2532 127.282 13.0092 138.445 14.5249C138.926 14.6259 139.45 14.7134 139.813 15.0798C139.148 14.9136 138.463 15.0029 137.788 14.986C121.122 14.7809 119.838 29.9829 118.184 33.9877C114.079 13.9015 102.334 15.4376 96.9698 14.6233C109.322 12.3607 113.332 20.1618 114.895 20.4362C114.668 18.8939 109.28 4.02517 94.0909 2.4817C90.188 2.35844 87.9915 2.32455 85.4901 3.53337C83.1265 4.66342 80.4555 7.19557 79.4414 10.1702C77.3593 16.6031 84.7748 18.48 86.5948 14.2203C87.0864 13.0223 86.0785 11.8988 85.3526 11.8517C84.6267 11.8062 83.892 11.8007 83.1802 11.9706C83.4789 11.7133 83.766 11.4166 84.1484 11.2915C89.1995 9.62851 89.2882 17.7791 83.5246 18.0489C78.8523 18.0859 76.7891 13.829 78.134 9.63949C78.9471 6.93583 80.7645 4.62887 82.9634 2.93389C88.9159 -1.65082 98.2439 -0.330016 104.022 3.25165Z" fill="#D9D9D9" fill-opacity="0.2"/>
<path d="M119.683 5.33163C120.008 5.3766 121.07 6.42095 121.277 7.62432C121.735 10.155 119.072 11.707 117.072 10.9258C113.567 9.55164 115.432 3.61815 119.683 5.33163Z" fill="#D9D9D9" fill-opacity="0.2"/>
<path d="M114.804 29.6593C113.401 29.5547 112.001 29.4064 110.597 29.3251C111.408 29.8802 113.863 31.0126 114.444 31.842C114.459 32.3937 111.671 32.2907 108.678 33.4815C100.321 36.6825 101.646 45.1732 94.3886 48.8325C83.1533 54.4512 82.1712 36.6484 90.7009 41.5122C91.5814 42.5323 92.5469 43.1837 90.6489 45.0343C90.588 44.6109 90.6498 44.1721 90.5114 43.762C90.1439 42.4867 88.4928 41.9281 87.4139 43.0106C86.4471 44.1626 87.1577 47.0426 89.5458 47.5835C91.5605 47.9457 93.642 45.9802 94.7382 44.0033C96.7204 40.441 96.7428 37.0419 98.3184 34.0553C99.2071 32.366 100.493 31.2006 100.76 30.5153C99.1044 30.7581 94.5528 34.0069 94.1013 34.1402C94.0401 33.9052 94.1003 27.1803 99.129 24.151C105.03 20.5902 113.118 23.0345 114.804 29.6593Z" fill="#D9D9D9" fill-opacity="0.2"/>
<path d="M141.72 31.3096C141.938 32.2468 141.912 33.2119 142.017 34.1634C141.929 34.1118 136.467 30.5033 135.396 30.5332C135.964 31.5612 137.748 33.0479 138.739 36.3042C139.821 39.4466 140.479 45.46 144.862 47.3432C147.965 48.6523 149.486 45.4422 149.156 43.7782C148.886 42.3457 146.473 41.6304 145.663 43.8318C145.514 44.2276 145.581 44.6574 145.549 45.0711C145.12 44.5814 144.603 44.0953 144.457 43.4333C144.145 42.2001 147.269 39.8044 149.565 41.054C153.082 43.1563 150.7 51.7412 143.801 49.6689C136.806 47.658 135.845 40.965 132.558 37.1307C128.441 32.2536 121.929 32.4107 121.445 32.046C122.48 31.1847 123.62 30.4662 124.791 29.8132C124.991 29.705 125.187 29.5773 125.317 29.3825C124.33 29.2798 122.043 29.8289 121.488 29.7658C121.465 29.5897 121.456 29.4102 121.502 29.2377C124.298 19.7159 139.956 20.3342 141.72 31.3096Z" fill="#D9D9D9" fill-opacity="0.2"/>
<path d="M83.521 24.2262C86.6479 24.3337 88.7466 26.4216 89.5221 28.6731C90.2644 30.7863 89.4012 32.5774 88.7301 33.7964C88.0862 34.9322 85.9416 36.1873 85.4741 36.1078C83.5778 35.1833 82.7958 33.3537 83.1043 32.3883C83.7671 30.4337 84.9578 30.9802 86.2537 30.9381C87.107 30.9494 86.4606 29.0394 85.8582 28.3792C84.7022 26.9455 82.2848 26.7608 80.6006 27.4303C76.2833 29.2176 74.2742 35.4684 73.5591 36.1516C73.4367 36.1426 73.2578 36.1757 73.2191 36.0175C72.4969 34.5219 72.8237 34.7869 72.5134 33.933C71.9941 34.4188 68.0979 44.376 58.1476 39.8666C57.9168 39.7675 57.6921 39.6022 57.6913 39.3225C59.6753 38.9211 65.5165 40.3293 69.512 34.4138C69.9578 33.7552 70.4168 33.0959 70.7198 32.3543C70.0973 31.6547 67.9148 31.5863 68.2011 28.7955C68.2887 28.0316 70.6979 28.8545 73.626 27.8832C77.9523 26.5302 80.2398 24.0618 83.521 24.2262Z" fill="#D9D9D9" fill-opacity="0.2"/>
<path d="M153.556 24.2011C156.988 24.1409 161.527 28.0525 165.885 28.3781C166.773 28.4371 167.662 28.4264 168.552 28.4282C168.531 29.6786 168.769 30.4102 167.692 31.5044C167.387 31.8181 166.93 31.8484 166.569 32.0619C165.697 32.5333 169.48 38.7016 174.996 39.0257C176.548 39.1659 178.105 39.2258 179.661 39.2705C179.569 39.3947 179.449 39.4894 179.306 39.5403C178.152 40.0023 176.787 41.1383 173.106 40.894C167.189 40.3913 165.704 35.4317 164.447 34.1696C164.108 35.0414 164.282 35.2838 163.487 36.1987C163.436 36.1924 163.334 36.1781 163.283 36.171C161.474 32.6653 158.831 26.6784 154.006 27.0387C152.045 27.1485 150.555 28.2652 150.283 30.3062C150.223 31.014 150.701 30.7124 151.624 30.7637C152.206 30.7869 152.86 30.8396 153.29 31.2891C154.92 32.9884 152.691 37.4872 149.561 35.1534C144.325 30.6941 148.467 24.1529 153.556 24.2011Z" fill="#D9D9D9" fill-opacity="0.2"/>
<path d="M60.0548 30.7235C60.4552 30.8472 61.3817 31.7755 62.3585 31.4446C62.9223 31.2525 63.3795 30.8075 63.9821 30.7146C64.0762 32.0163 62.0472 34.5433 60.7216 34.4029C60.5639 33.488 60.5401 32.5534 60.3357 31.6465C60.2681 31.3301 60.1218 31.0388 60.0548 30.7235Z" fill="#D9D9D9" fill-opacity="0.2"/>
<path d="M173.034 30.7451C173.808 30.6561 174.259 31.6405 175.215 31.4724C175.815 31.3107 176.338 30.9489 176.927 30.7505C176.795 31.1312 176.566 31.4769 176.52 31.8861C176.341 32.7099 176.497 33.5721 176.254 34.3843C175.117 34.5923 172.756 32.4681 173.034 30.7451Z" fill="#D9D9D9" fill-opacity="0.2"/>
<path d="M120.026 33.2736C124.828 34.3064 129.737 38.2645 129.598 43.1707C129.639 46.9263 127.785 48.5585 125.371 51.0655C125.338 49.9875 125.59 48.4176 124.273 46.0504C124.229 46.0459 124.141 46.0387 124.097 46.0352C123.23 56.0027 120.734 55.3776 118.199 61.9999C118.095 61.9999 117.993 62.0009 117.892 62.0026C117.749 61.6577 117.809 61.262 117.634 60.9268C115.2 55.4661 113.046 55.7443 112.152 45.9163C111.001 46.8709 110.842 49.6818 110.667 50.717C109.469 50.218 104.909 45.5129 107.337 39.8059C108.953 36.215 113.828 33.5093 116.122 33.304C116.324 33.4622 116.591 33.6042 116.612 33.8963C117.252 38.7641 116.683 46.7591 118.485 46.8661C120.054 44.598 118.457 35.627 120.026 33.2736Z" fill="#D9D9D9" fill-opacity="0.2"/>
<path d="M109.848 35.1088C109.132 36.1482 106.959 38.5188 103.708 45.5875C98.599 56.5945 96.9661 59.0038 91.891 62.024C86.6748 65.1206 77.8711 65.7336 74.1528 58.7467C69.8297 50.0412 76.558 44.6551 81.2181 47.5585C83.9934 49.3322 82.8363 55.3953 79.7706 53.9416C79.3874 53.761 78.924 53.6396 78.7161 53.2277C79.2154 53.2069 80.8475 53.6731 81.2515 52.2252C81.5844 51.1331 81.1078 48.989 79.2737 48.6628C76.9434 48.4377 72.9209 51.1477 75.0909 56.454C78.9511 65.4111 89.6334 62.2616 93.2422 58.5268C93.1273 58.5437 88.7839 60.0777 87.0315 59.6794C87.0324 59.2121 87.5714 59.1504 87.9097 59.0406C92.2792 57.5825 96.2795 55.2102 101.709 45.7099C105.034 39.8555 105.311 38.1289 109.848 35.1088Z" fill="#D9D9D9" fill-opacity="0.2"/>
<path d="M126.859 35.5688C132.984 37.8483 135.194 53.9981 146.882 58.5331C148.727 59.268 148.917 59.1554 149.196 59.6035C148.15 60.2135 143.689 58.7357 142.949 58.6832C143.497 59.3278 146.221 60.7218 146.984 61.0876C148.628 61.9337 150.496 62.2268 152.325 62.2143C159.634 62.5795 162.207 55.306 161.692 52.7184C161.46 50.9841 159.816 49.3845 158.649 48.905C154.894 47.6087 153.527 52.7129 156.237 53.3832C156.637 53.4975 157.106 53.3698 157.442 53.6753C156.367 53.9169 155.252 54.7587 154.134 53.3965C153.275 52.2517 152.9 49.6215 154.427 48.0731C156.438 45.9619 160.358 46.401 162.29 49.3285C164.74 52.8084 163.281 60.4655 157.205 63.3151C150.83 66.0247 142.433 62.513 138.5 56.9186C133.11 49.2333 134.915 48.4797 127.314 36.4543C127.14 36.172 126.939 35.8977 126.859 35.5688Z" fill="#D9D9D9" fill-opacity="0.2"/>
<path d="M25.5468 39.6512C27.743 41.6055 27.789 42.0213 30.6414 41.3685C34.2973 40.399 38.0626 39.7477 41.8516 39.7951C46.5347 39.7467 50.5042 40.9273 52.7535 45.4284C56.6458 53.5157 49.9305 59.7491 42.1758 57.4771C40.6235 56.9812 39.192 56.1716 37.8177 55.3005C29.506 50.2123 32.7726 53.7746 29.3491 55.1763C26.5144 55.2476 25.7328 49.8965 32.2439 50.6981C34.9685 51.2346 35.6564 51.9991 36.9624 52.4618C37.2066 51.455 36.3493 47.8337 40.695 46.7168C42.0618 46.3736 44.8422 47.4211 45.5217 49.9038C45.6327 50.3452 45.8265 50.808 45.6865 51.2664C45.0323 53.0345 43.5549 53.1083 42.944 52.5127C41.9018 51.356 42.7561 50.7722 42.4507 49.533C41.9626 49.4204 41.4675 49.3194 40.968 49.281C39.5729 49.2778 38.506 51.5014 40.2377 53.744C43.6455 58.1223 50.9522 55.2646 50.9238 50.3193C50.9382 47.6496 50.9047 46.1816 48.6553 44.4911C47.2555 43.5364 45.1366 42.9719 43.9738 42.9141C28.7455 41.9164 24.2872 50.0605 14.3903 55.1557C9.14478 57.9079 5.01862 57.9237 3.53343 57.1884C-1.54608 54.6701 -1.00526 47.6002 4.23206 47.7702C8.13793 47.9377 7.759 51.3924 6.74983 52.1501C6.19393 52.5709 5.52797 53.0212 4.79852 52.8622C2.52945 52.0184 3.5065 50.9907 2.91329 50.3372C2.29685 50.7961 1.69948 52.4405 2.63228 53.4581C4.16477 55.3488 7.21411 55.5486 9.48003 55.0074C13.0687 54.0054 23.2577 47.49 23.5278 46.3969C23.511 46.371 23.4767 46.3183 23.46 46.2924C22.4427 45.9624 17.9107 46.3992 17.4052 42.3736C18.013 42.5818 18.5619 42.94 19.1847 43.1089C21.225 43.6816 20.7071 43.5898 24.1453 43.6146C27.2289 43.4767 25.1957 42.5293 25.4783 40.4865C25.5345 40.2115 25.5495 39.9309 25.5468 39.6512Z" fill="#D9D9D9" fill-opacity="0.2"/>
<path d="M208.359 41.6508C209.553 41.6531 210.509 40.4665 211.527 39.6593C211.211 43.218 210.899 43.1365 211.495 43.3816C212.088 43.6246 212.738 43.6622 213.371 43.7006C216.833 43.7805 218.145 42.8623 219.562 42.6266C219.37 43.8175 218.547 44.8603 217.481 45.3785C215.105 46.4872 214.239 45.8052 213.156 46.2934C213.502 47.1954 224.642 54.4331 227.714 55.0789C231.043 55.9279 234.607 54.2453 234.703 52.4673C234.777 51.7749 234.715 50.9162 234.096 50.4864C233.782 50.834 233.886 51.3566 233.621 51.732C233.023 52.6558 231.71 53.1329 230.723 52.562C229.535 51.8615 229.237 50.0978 230.03 48.9862C231.115 47.2906 236.164 46.7039 236.905 51.0296C237.347 54.7468 234.404 57.4308 231.67 57.6217C223.553 58.2531 213.819 48.5666 206.735 45.0826C199.712 41.8119 186.721 41.0911 186.02 48.284C185.415 53.3482 188.776 56.2947 193.387 55.8366C194.707 55.6972 195.82 54.8126 196.62 53.786C198.344 51.6661 197.885 48.3929 194.671 49.4892C194.027 49.7462 194.879 51.2059 194.458 52.0347C193.948 52.6592 193.033 53.0783 192.259 52.7182C190.054 51.6518 191.593 46.7417 195.845 46.672C197.106 46.6961 198.28 47.427 199.005 48.4518C200.148 50.0554 199.846 51.2517 200.033 52.4653C201.399 51.8868 203.347 50.3542 207.033 50.6569C212.388 51.5567 208.416 57.6992 206.088 53.9503C205.812 53.5393 205.662 53.0461 205.329 52.6761C204.812 52.0887 202.142 53.4937 201.474 53.8797C200.371 54.4801 190.882 61.8421 185.054 55.2726C182.109 52.1087 182.703 46.6871 185.524 43.3402C191.34 36.3098 206.2 41.6698 208.359 41.6508Z" fill="#D9D9D9" fill-opacity="0.2"/>
<path d="M59.2427 40.9788C59.9048 40.7948 61.238 41.6502 61.5729 42.2011C62.17 43.3091 61.3331 45.6284 59.596 43.7593C59.3484 43.5198 59.0023 43.2437 58.6419 43.3948C55.024 45.4322 55.6077 52.8709 57.0183 54.4346C57.413 54.4301 57.731 54.1594 58.0666 53.9852C60.1614 53.6801 60.1797 58.1393 57.6807 57.3947C56.3887 56.9639 56.056 56.5001 55.3057 55.3451C53.8217 52.9982 52.8299 42.6943 59.2427 40.9788Z" fill="#D9D9D9" fill-opacity="0.2"/>
<path d="M177.254 41.0961C182.582 40.8712 184.149 51.068 181.532 55.4623C179.02 59.0693 176.828 56.873 177.294 55.4275C177.455 54.8726 177.778 54.2892 178.323 54.0524C178.918 53.9658 179.466 54.3125 180.043 54.4134C181.042 53.0378 181.237 48.5957 180.705 47.0771C180.148 45.3417 178.754 42.4547 177.47 43.7408C177.155 44.0964 176.722 44.3072 176.339 44.5762C175.347 45.2886 174.175 41.2239 177.254 41.0961Z" fill="#D9D9D9" fill-opacity="0.2"/>
</svg>
